<?xml version="1.0" standalone="no"?><!DOCTYPE svg PUBLIC "-//W3C//DTD SVG 1.1//EN" "http://www.w3.org/Graphics/SVG/1.1/DTD/svg11.dtd"><svg t="1586069998796" class="icon" viewBox="0 0 1024 1024" version="1.1" xmlns="http://www.w3.org/2000/svg" p-id="4436" xmlns:xlink="http://www.w3.org/1999/xlink" width="200" height="200"><defs><style type="text/css"></style></defs><path d="M722.707692 150.567385V29.538462h78.769231v121.028923h15.753846c65.260308 0 118.153846 46.395077 118.153846 103.620923V910.572308c0 57.225846-52.893538 103.620923-118.153846 103.620923h-590.769231c-65.260308 0-118.153846-46.395077-118.153846-103.620923V254.188308c0-57.225846 52.893538-103.581538 118.153846-103.581539h23.63077V29.538462h78.76923v121.028923h393.846154z m-200.861538 478.050461c86.921846 0 157.380923-61.794462 157.380923-138.043077 0-76.209231-70.459077-138.043077-157.380923-138.043077s-157.380923 61.833846-157.380923 138.043077c0 76.248615 70.459077 138.043077 157.380923 138.043077z m-305.624616 183.532308h611.249231c-31.271385-68.686769-156.238769-120.044308-305.624615-120.044308-149.385846 0-274.353231 51.357538-305.624616 120.083692z" fill="#FFA95F" p-id="4437"></path></svg>