<?xml version="1.0" standalone="no"?><!DOCTYPE svg PUBLIC "-//W3C//DTD SVG 1.1//EN" "http://www.w3.org/Graphics/SVG/1.1/DTD/svg11.dtd"><svg t="1568191041066" class="icon" viewBox="0 0 1024 1024" version="1.1" xmlns="http://www.w3.org/2000/svg" p-id="2459" xmlns:xlink="http://www.w3.org/1999/xlink" width="200" height="200"><defs><style type="text/css"></style></defs><path d="M512 2.56C231.424 2.56 3.584 229.888 3.584 510.976S231.424 1018.88 512 1018.88s508.416-227.328 508.416-508.416S793.088 2.56 512 2.56z m0 941.568c-239.616 0-433.664-194.048-433.664-433.664S272.384 76.8 512 76.8s433.664 194.048 433.664 433.664-194.048 433.664-433.664 433.664z" fill="#F4DCCB" p-id="2460"></path><path d="M515.072 690.688c-11.264 0-20.48-9.216-20.48-20.48V412.672c0-11.264 9.216-20.48 20.48-20.48s20.48 9.216 20.48 20.48v257.536c0 11.264-8.704 20.48-20.48 20.48z" fill="#FF9D4D" p-id="2461"></path><path d="M715.264 610.304c-11.264 0-20.48-9.216-20.48-20.48v-59.904H329.216v59.904c0 11.264-9.216 20.48-20.48 20.48s-20.48-9.216-20.48-20.48V508.928c0-11.264 9.216-20.48 20.48-20.48h407.04c11.264 0 20.48 9.216 20.48 20.48v80.384c-0.512 11.776-9.728 20.992-20.992 20.992z" fill="#FF9D4D" p-id="2462"></path><path d="M515.072 729.088m-61.952 0a61.952 61.952 0 1 0 123.904 0 61.952 61.952 0 1 0-123.904 0Z" fill="#FF9D4D" p-id="2463"></path><path d="M381.952 729.6H235.52c-11.264 0-20.48-9.216-20.48-20.48v-101.888c0-11.264 9.216-20.48 20.48-20.48h146.432c11.264 0 20.48 9.216 20.48 20.48v101.888c0 11.264-9.216 20.48-20.48 20.48z m-125.952-40.96h105.472v-60.928H256v60.928zM788.48 724.992h-146.432c-11.264 0-20.48-9.216-20.48-20.48v-101.888c0-11.264 9.216-20.48 20.48-20.48H788.48c11.264 0 20.48 9.216 20.48 20.48v101.888c0 11.264-8.704 20.48-20.48 20.48z m-125.952-40.96H768v-60.928h-105.472v60.928zM505.344 424.96L362.496 327.68c-10.24-7.168-10.24-22.016 0-29.184l142.848-96.768c6.144-4.096 13.824-4.096 19.968 0l142.848 96.768c10.24 7.168 10.24 22.016 0 29.184l-142.848 97.28c-6.144 4.096-13.824 4.096-19.968 0z" fill="#FF9D4D" p-id="2464"></path></svg>