<?xml version="1.0" standalone="no"?><!DOCTYPE svg PUBLIC "-//W3C//DTD SVG 1.1//EN" "http://www.w3.org/Graphics/SVG/1.1/DTD/svg11.dtd"><svg t="1585999731026" class="icon" viewBox="0 0 1081 1024" version="1.1" xmlns="http://www.w3.org/2000/svg" p-id="9555" xmlns:xlink="http://www.w3.org/1999/xlink" width="211.1328125" height="200"><defs><style type="text/css"></style></defs><path d="M504.789986 40.055633a464.734353 464.734353 0 1 0 464.734353 464.734353A465.446453 465.446453 0 0 0 504.789986 40.055633z m0 126.753825a126.753825 126.753825 0 1 1-126.753825 126.753824 126.753825 126.753825 0 0 1 126.753825-126.753824z m31.688456 338.247566a31.688456 31.688456 0 1 1-31.688456-31.688457 31.777469 31.777469 0 0 1 31.688456 31.421419z m-369.668984 0a126.753825 126.753825 0 1 1 126.753824 126.486787 126.753825 126.753825 0 0 1-126.753824-126.753825z m338.247566 338.247566a126.753825 126.753825 0 1 1 126.219749-127.2879 126.753825 126.753825 0 0 1-126.486787 126.753825z m211.226703-211.226704a126.753825 126.753825 0 1 1 126.753825-126.753825 126.753825 126.753825 0 0 1-127.020862 126.21975z" opacity=".2" p-id="9556" fill="#d81e06"></path><path d="M478.086231 13.351878a464.734353 464.734353 0 1 0 464.734353 464.734353A465.446453 465.446453 0 0 0 478.086231 13.351878z m0 126.753824a126.753825 126.753825 0 1 1-126.753825 126.753825 126.753825 126.753825 0 0 1 126.753825-126.753825z m31.688456 338.247566a31.688456 31.688456 0 1 1-31.688456-31.688456 31.777469 31.777469 0 0 1 31.688456 31.421419z m-369.668985 0a126.753825 126.753825 0 1 1 126.753825 126.486788 126.753825 126.753825 0 0 1-126.753825-126.753825z m338.247566 338.247566a126.753825 126.753825 0 1 1 126.21975-127.287899 126.753825 126.753825 0 0 1-126.486787 126.753824z m211.226704-211.226703a126.753825 126.753825 0 1 1 126.753825-126.753825 126.753825 126.753825 0 0 1-127.020862 126.21975z" fill="#d81e06" p-id="9557"></path><path d="M809.301808 82.336579c28.662031 28.127955 198.408901 199.477051 178.025035 432.422809-22.520167 254.5758-263.210014 481.735744-585.969402 509.240612 294.720445 0 550.008345-159.065369 642.581363-396.01669 75.037552-192.178025 17.802503-371.894298-4.005563-432.422809z" p-id="9558" fill="#d81e06"></path></svg>