<?xml version="1.0" standalone="no"?><!DOCTYPE svg PUBLIC "-//W3C//DTD SVG 1.1//EN" "http://www.w3.org/Graphics/SVG/1.1/DTD/svg11.dtd"><svg t="1571812157707" class="icon" viewBox="0 0 1024 1024" version="1.1" xmlns="http://www.w3.org/2000/svg" p-id="2109" xmlns:xlink="http://www.w3.org/1999/xlink" width="200" height="200"><defs><style type="text/css"></style></defs><path d="M964.7616 629.0688c-0.7168-98.432-3.7632-197.6064-11.8272-296.0384-4.48-58.0864-5.9136-121.9328-26.368-176.9728-4.48-10.9312-16.8448-16.8448-27.9808-13.2608-2.8672 1.4336-5.1968 2.8672-7.3472 5.1968-21.3248-5.1968-42.6752-8.7808-63.8208-10.9312-1.4336-10.9312-3.584-21.3248-6.6304-31.5648-2.8672-22.0672-9.4976-43.392-19.8912-63.104-5.1968-8.7808-15.4112-13.2608-25.6512-11.8272-0.7168-0.7168-1.4336-0.7168-2.1504-0.7168-4.48-0.7168-8.7808-0.7168-12.544-0.7168-4.48 0-8.7808 2.1504-11.8272 6.6304-2.8672 5.1968-5.1968 10.9312-7.3472 16.8448-3.584 2.1504-6.6304 5.1968-8.7808 8.7808-9.4976 22.0672-16.128 45.5424-19.1744 69.76-64.5376-0.7168-129.28 0.7168-192.384-7.3472s-128.5632-16.128-193.8176-17.5616c-2.1504-13.2608-5.9136-26.368-9.4976-38.912-2.1504-6.6304-7.3472-11.8272-13.2608-13.9776-19.1744-19.8912-44.8256-15.4112-63.8208 0.7168-16.8448 14.6944-27.9808 34.6112-32.9984 56.4736-38.912 3.584-77.1072 10.9312-114.5856 21.3248-4.48 0.7168-8.064 3.584-10.2144 7.3472-5.9136 2.8672-10.2144 8.7808-10.2144 15.4112-2.8672 180.736 3.584 362.0096-4.48 542.7456-1.4336 28.6976-2.1504 58.0864-2.8672 87.3216-2.1504 2.1504-3.584 4.48-3.584 7.3472-2.8672 22.0672-5.9136 47.6928 3.584 65.4336v19.1744c0 20.608-4.48 51.456 19.8912 60.9536 2.8672 1.4336 6.6304 1.4336 9.4976 0 43.392 29.4144 116.0192 27.264 164.608 30.1312 79.2576 5.1968 157.9776 1.4336 237.2096 2.8672 91.8016 2.1504 188.8 22.784 281.3184 17.5616 2.8672 2.1504 6.6304 3.584 9.4976 3.584 42.6752 4.48 83.7376-2.1504 126.4128-8.7808 7.3472-1.4336 13.2608-7.3472 13.2608-15.4112 21.3248-18.2784 24.2176-58.8032 27.9808-83.7376 9.8048-82.9696 10.5216-169.5744 9.8048-254.7456z" fill="#FCFDCD" p-id="2110"></path><path d="M203.9808 151.04c0.7168 36.7616 12.544 72.8064 32.9984 103.6288 5.9136 8.7808 16.128 13.2608 27.264 10.9312 52.1728-18.9952 69.0432-66.176 68.3264-115.3024 63.8208 2.8672 127.1296 10.2144 190.2336 18.2784 63.104 8.064 127.1296 5.9136 190.9504 6.6304 0 8.064 0.7168 15.4112 1.4336 23.5008 0 10.2144 8.064 18.9952 17.5616 20.608 1.4336 5.9136 3.584 11.8272 5.9136 17.5616 1.4336 4.48 4.48 8.7808 8.064 11.8272 2.1504 4.48 4.48 8.7808 7.3472 12.544 7.3472 10.9312 22.0672 14.6944 32.9984 8.064 3.7632-2.1504 5.9136-4.48 8.064-8.064 3.584 0 6.6304-0.7168 10.2144-1.4336 8.7808-1.4336 14.6944-10.2144 13.2608-18.9952-0.7168-2.8672-1.4336-5.1968-3.584-7.3472 7.3472-16.128 11.8272-32.9984 13.9776-50.7392 22.784 2.8672 44.8256 7.3472 66.8928 13.2608 6.6304 37.4784 7.3472 77.824 10.2144 114.5856 2.1504 31.5648 3.584 63.104 5.9136 95.5648-43.392-17.5616-95.3856-19.8912-141.824-23.5008-74.24-5.9136-148.2752-2.8672-222.5152 0-142.5408 7.3472-287.2576 13.9776-429.6192 27.264-0.7168 0-1.4336 0.7168-2.8672 0.7168-0.7168-82.304-2.1504-164.608-3.7632-246.7328 29.2608-6.4 60.8-10.7008 92.544-12.8512z" fill="#F5DA88" p-id="2111"></path><path d="M465.408 570.24v-0.7168c-0.7168-5.9136-0.7168-11.8272-1.4336-17.5616 0-5.1968-2.1504-9.4976-5.9136-13.2608-3.584-7.3472-11.8272-11.8272-20.608-10.9312-5.1968-8.064-16.128-10.9312-24.2176-5.9136h-0.7168c-22.0672 13.9776-44.1088 27.264-60.9536 47.6928-1.4336 1.4336-2.1504 3.584-2.8672 5.1968l-24.2176 12.544c-16.8448 8.7808-5.1968 38.1952 13.2608 30.848l3.584-1.4336c15.4112-6.6304 31.5648-13.2608 46.2592-20.608 5.9136-2.8672 10.9312-6.6304 16.128-10.2144 0.7168 32.2816 1.4336 65.4336 4.48 97.7152-0.7168 6.6304-0.7168 13.2608-1.4336 18.9952-2.1504 32.9984-8.7808 66.8928-3.584 99.1488 2.1504 13.2608 17.5616 16.128 27.9808 10.2144 6.6304 23.5008 45.5424 16.128 45.5424-8.7808-0.7168-76.3904-6.6304-152.7552-12.544-229.8624 1.2544-0.7424 1.2544-2.3552 1.2544-3.072z m215.8848-50.56c0-8.064-7.3472-15.4112-15.4112-15.4112-5.9136-5.9136-14.6944-8.064-22.0672-5.1968-4.48 2.1504-9.4976 3.584-13.9776 5.9136-2.1504 0-5.1968 0.7168-7.3472 2.1504-16.8448 7.3472-32.9984 12.544-48.4096 19.8912-5.1968 2.1504-10.2144 3.7632-15.4112 5.9136-4.48 1.4336-7.3472 3.7632-10.2144 7.3472-2.1504 1.4336-5.1968 2.8672-7.3472 5.1968-0.7168 0-0.7168 0-1.4336 0.7168-1.4336 0.7168-2.8672 2.1504-4.48 2.8672-19.8912 16.128 5.9136 45.5424 26.368 33.7152 18.2784-10.2144 37.4784-19.1744 58.0864-24.9344 3.584 16.8448 6.6304 33.7152 8.064 50.7392-1.4336 30.848-4.48 62.3872-6.6304 93.2352-16.128 49.1264-20.608 105.7792 35.328 129.9968 13.2608 5.9136 29.4144-0.7168 29.4144-16.128V735.744c2.1504-37.4784 2.1504-74.9568 0-113.152-1.664-33.8688-2.3808-68.48-4.5312-102.912z" fill="#E54C4C" p-id="2112"></path><path d="M964.7616 629.0688c-0.7168-98.432-3.7632-197.6064-11.8272-296.0384-4.48-58.0864-5.9136-121.9328-26.368-176.9728-4.48-10.9312-16.8448-16.8448-27.9808-13.2608-2.8672 1.4336-5.1968 2.8672-7.3472 5.1968-21.3248-5.1968-42.6752-8.7808-63.8208-10.9312-1.4336-10.9312-3.584-21.3248-6.6304-31.5648-2.8672-22.0672-9.4976-43.392-19.8912-63.104-5.1968-8.7808-15.4112-13.2608-25.6512-11.8272-0.7168-0.7168-1.4336-0.7168-2.1504-0.7168-4.48-0.7168-8.7808-0.7168-12.544-0.7168-4.48 0-8.7808 2.1504-11.8272 6.6304-2.8672 5.1968-5.1968 10.9312-7.3472 16.8448-3.584 2.1504-6.6304 5.1968-8.7808 8.7808-9.4976 22.0672-16.128 45.5424-19.1744 69.76-64.5376-0.7168-129.28 0.7168-192.384-7.3472s-128.5632-16.128-193.8176-17.5616c-2.1504-13.2608-5.9136-26.368-9.4976-38.912-2.1504-6.6304-7.3472-11.8272-13.2608-13.9776-19.1744-19.8912-44.8256-15.4112-63.8208 0.7168-16.8448 14.6944-27.9808 34.6112-32.9984 56.4736-38.912 3.584-77.1072 10.9312-114.5856 21.3248-4.48 0.7168-8.064 3.584-10.2144 7.3472-5.9136 2.8672-10.2144 8.7808-10.2144 15.4112-2.8672 180.736 3.584 362.0096-4.48 542.7456-1.4336 28.6976-2.1504 58.0864-2.8672 87.3216-2.1504 2.1504-3.584 4.48-3.584 7.3472-2.8672 22.0672-5.9136 47.6928 3.584 65.4336v19.1744c0 20.608-4.48 51.456 19.8912 60.9536 2.8672 1.4336 6.6304 1.4336 9.4976 0 43.392 29.4144 116.0192 27.264 164.608 30.1312 79.2576 5.1968 157.9776 1.4336 237.2096 2.8672 91.8016 2.1504 188.8 22.784 281.3184 17.5616 2.8672 2.1504 6.6304 3.584 9.4976 3.584 42.6752 4.48 83.7376-2.1504 126.4128-8.7808 7.3472-1.4336 13.2608-7.3472 13.2608-15.4112 21.3248-18.2784 24.2176-58.8032 27.9808-83.7376 9.8048-82.9696 10.5216-169.5744 9.8048-254.7456z m-51.456-125.5168c-257.1264-81.5872-533.9648-13.9776-798.976-41.7792v-21.3248c126.2336 23.5008 263.5776 2.1504 390.7072-5.1968 68.3264-3.584 136.6272-5.9136 204.9536-3.584 68.3264 2.1504 135.1936 20.608 202.8032 22.0672-0.2048 16.64 0.512 32.768 0.512 49.8176zM203.9808 151.04c1.4336 36.7616 12.544 72.8064 32.9984 103.6288 5.9136 8.7808 16.128 13.2608 27.264 10.9312 52.1728-18.9952 69.0432-66.176 68.3264-115.3024 63.8208 2.8672 127.1296 10.2144 190.2336 18.2784 63.104 8.064 127.1296 5.9136 190.9504 6.6304 0 8.064 0.7168 15.4112 1.4336 23.5008 0 10.2144 8.064 18.9952 17.5616 20.608 1.4336 5.9136 3.584 11.8272 5.9136 17.5616 1.4336 4.48 4.48 8.7808 8.064 11.8272 2.1504 4.48 4.48 8.7808 7.3472 12.544 7.3472 10.9312 22.0672 14.6944 32.9984 8.064 3.7632-2.1504 5.9136-4.48 8.064-8.064 3.584 0 6.6304-0.7168 10.2144-1.4336 8.7808-1.4336 14.6944-10.2144 13.2608-18.9952-0.7168-2.8672-1.4336-5.1968-3.584-7.3472 7.3472-16.128 11.8272-32.9984 13.9776-50.7392 22.784 2.8672 44.8256 7.3472 66.8928 13.2608 6.6304 37.4784 7.3472 77.824 10.2144 114.5856 2.1504 31.5648 3.584 63.104 5.9136 95.5648-43.392-17.5616-95.3856-19.8912-141.824-23.5008-74.24-5.9136-148.2752-2.8672-222.5152 0-142.5408 7.3472-287.2576 13.9776-429.6192 27.264-0.7168 0-1.4336 0.7168-2.8672 0.7168-0.7168-82.304-2.1504-164.608-3.7632-246.7328 29.2608-6.4 60.8-10.7008 92.544-12.8512z m707.1744 660.9152c-1.4336 30.848-5.1968 61.6704-10.2144 91.8016-0.7168 5.9136-2.1504 11.8272-3.584 16.8448-6.6304-2.8672-13.9776-2.8672-20.608 0-1.4336 0.7168-3.584 1.4336-4.48 2.1504-153.472 5.9136-306.2528-19.1744-459.7248-14.6944-43.392 1.4336-287.9744 19.8912-284.1856-48.4096 0-10.2144-7.3472-18.9952-16.8448-22.0672-1.4336 0-2.8672-1.4336-3.584-2.1504 0-61.6704 3.584-123.3664 5.9136-185.0368 1.4336-57.1904 2.1504-114.5856 2.1504-171.776 265.1904 51.456 537.5488-32.2816 800.5888 48.4096 0 11.8272 0.7168 23.5008 0.7168 35.328-0.2304 82.8416-0.9472 166.5792-6.144 249.6z" fill="#A6583F" p-id="2113"></path></svg>