<?xml version="1.0" standalone="no"?><!DOCTYPE svg PUBLIC "-//W3C//DTD SVG 1.1//EN" "http://www.w3.org/Graphics/SVG/1.1/DTD/svg11.dtd"><svg t="1569160264500" class="icon" viewBox="0 0 1024 1024" version="1.1" xmlns="http://www.w3.org/2000/svg" p-id="7948" xmlns:xlink="http://www.w3.org/1999/xlink" width="200" height="200"><defs><style type="text/css"></style></defs><path d="M896 540.992V113.792C896 50.944 838.72 0 768 0H128C57.28 0 0 50.944 0 113.792v796.416C0 973.056 57.28 1024 128 1024h644.096v-64H128c-36.928 0-64-24.064-64-49.792V113.792C64 88.064 91.072 64 128 64h640c36.928 0 64 24.064 64 49.792v427.2h64z m0 30.72V113.728C896 50.944 838.72 0 768 0H128C57.28 0 0 50.944 0 113.792v796.416C0 973.056 57.28 1024 128 1024h644.096v-64H128c-36.928 0-64-24.064-64-49.792V113.792C64 88.064 91.072 64 128 64h640c36.928 0 64 24.064 64 49.792v427.2l64 30.72z" fill="#d4237a" p-id="7949"></path><path d="M192 320a32 32 0 0 1 0-64h512a32 32 0 1 1 0 64H192zM192 512a32 32 0 0 1 0-64h384a32 32 0 0 1 0 64H192zM192 704a32 32 0 1 1 0-64h192a32 32 0 1 1 0 64H192zM768 960a192 192 0 1 0 0-384 192 192 0 0 0 0 384z m0 64a256 256 0 1 1 0-512 256 256 0 0 1 0 512z" fill="#d4237a" p-id="7950"></path><path d="M876.608 840.384a25.6 25.6 0 1 1-36.224 36.224l-180.992-180.992a25.6 25.6 0 1 1 36.224-36.224l180.992 180.992z" fill="#d4237a" p-id="7951"></path><path d="M695.616 876.608a25.6 25.6 0 1 1-36.224-36.224l180.992-180.992a25.6 25.6 0 1 1 36.224 36.224l-180.992 180.992z" fill="#d4237a" p-id="7952"></path></svg>