<?xml version="1.0" standalone="no"?><!DOCTYPE svg PUBLIC "-//W3C//DTD SVG 1.1//EN" "http://www.w3.org/Graphics/SVG/1.1/DTD/svg11.dtd"><svg t="1568097710273" class="icon" viewBox="0 0 1024 1024" version="1.1" xmlns="http://www.w3.org/2000/svg" p-id="5777" xmlns:xlink="http://www.w3.org/1999/xlink" width="200" height="200"><defs><style type="text/css"></style></defs><path d="M452.390615 240.72581c-55.032849 0-99.882905 44.850056-99.882906 99.882905s44.850056 99.882905 99.882906 99.882905 99.882905-44.850056 99.882905-99.882905-44.850056-99.882905-99.882905-99.882905zM512 0C229.284469 0 0 229.284469 0 512S229.284469 1024 512 1024 1024 794.715531 1024 512 794.715531 0 512 0z m241.412291 740.712402c-5.148603 5.72067-12.471061 8.924246-20.251174 8.924246H576.071508c-15.10257 0-27.344804-12.242235-27.344804-27.344804s12.242235-27.344804 27.344804-27.344805H701.35419c-16.933184-78.373184-69.220112-142.101453-138.897877-175.166927l-1.029721-0.34324c-8.466592-4.004469-17.162011-7.551285-25.971843-10.640447-0.114413 0-0.228827-0.114413-0.343241-0.114414-7.780112-2.631508-15.560223-4.805363-23.569162-6.635977-2.288268-0.572067-4.576536-1.029721-6.864804-1.487375-6.178324-1.258547-12.471061-2.288268-18.763799-3.089162l-7.551285-1.02972c-8.581006-0.800894-17.162011-1.372961-25.85743-1.372961-8.695419 0-17.276425 0.572067-25.85743 1.372961-2.517095 0.228827-5.03419 0.68648-7.551285 1.02972-6.292737 0.800894-12.585475 1.830615-18.763799 3.089162-2.288268 0.457654-4.576536 1.029721-6.979218 1.487375-7.894525 1.830615-15.78905 4.004469-23.454749 6.635977-0.114413 0-0.34324 0.114413-0.457653 0.114414-8.809832 3.089162-17.505251 6.521564-25.971844 10.640447l-1.02972 0.34324c-69.677765 33.065475-121.964693 96.793743-138.897877 175.166927h125.282681c15.10257 0 27.344804 12.242235 27.344805 27.344805s-12.242235 27.344804-27.344805 27.344804H171.734525c-7.665698 0-14.988156-3.203575-20.251173-8.924246-5.148603-5.72067-7.665698-13.271955-6.979218-20.937653 11.898994-122.422346 93.018101-221.504358 202.626145-260.86257 1.487374-0.572067 2.860335-1.144134 4.34771-1.601788-32.722235-28.374525-53.545475-70.135419-53.545475-116.701676 0-85.237989 69.334525-154.458101 154.458101-154.4581s154.458101 69.334525 154.4581 154.4581c0 46.566257-20.82324 88.327151-53.545475 116.701676 1.372961 0.457654 2.860335 1.029721 4.233296 1.601788 109.722458 39.243799 190.955978 138.32581 202.740559 260.86257 0.800894 7.665698-1.716201 15.331397-6.864804 20.937653z m-115.443129-288.321787c0-15.10257 12.242235-27.344804 27.344804-27.344805h30.777207c15.10257 0 27.344804 12.242235 27.344805 27.344805s-12.242235 27.344804-27.344805 27.344804h-30.777207c-15.10257-0.114413-27.344804-12.356648-27.344804-27.344804z m105.946816-59.037319h-78.602012c-15.10257 0-27.344804-12.242235-27.344804-27.344804s12.242235-27.344804 27.344804-27.344805h78.602012c15.10257 0 27.344804 12.242235 27.344804 27.344805s-12.242235 27.344804-27.344804 27.344804z m48.511285-86.267709H665.313966c-15.10257 0-27.344804-12.242235-27.344804-27.344805s12.242235-27.344804 27.344804-27.344804h127.113297c15.10257 0 27.344804 12.242235 27.344804 27.344804s-12.242235 27.344804-27.344804 27.344805z" fill="#1A70CC" p-id="5778"></path></svg>