<?xml version="1.0" standalone="no"?><!DOCTYPE svg PUBLIC "-//W3C//DTD SVG 1.1//EN" "http://www.w3.org/Graphics/SVG/1.1/DTD/svg11.dtd"><svg t="1568186053993" class="icon" viewBox="0 0 1341 1024" version="1.1" xmlns="http://www.w3.org/2000/svg" p-id="2619" xmlns:xlink="http://www.w3.org/1999/xlink" width="261.9140625" height="200"><defs><style type="text/css"></style></defs><path d="M1208.214069 609.050483c-3.531034 39.812414-3.177931 80.101517-16.331035 118.660414-17.513931 51.376552-50.264276 77.117793-103.918344 81.213793-19.526621 1.483034-39.017931 3.601655-58.526897 5.437793a69.932138 69.932138 0 0 1-30.861241 8.086069c-72.474483 1.818483-144.807724 6.814897-217.405793 5.790896-97.633103-1.359448-195.283862-0.282483-292.934621-0.388414-13.382621-0.017655-26.924138 1.147586-39.918345-3.407448-17.602207-14.724414-1.818483-28.283586 1.50069-42.266483 10.187034-10.028138 23.304828-7.238621 35.557517-7.803586 36.758069-1.694897 73.410207-4.908138 108.190897-17.513931 28.389517-10.292966 32.679724-22.227862 21.080275-49.611034-11.528828-27.188966-30.313931-48.269241-54.554482-64.759173-1.182897-3.707586-0.635586-7.273931 2.048-9.922207 37.358345-36.775724 35.151448-79.412966 18.555586-124.186482 23.552-9.569103 20.850759-24.717241 13.27669-45.250207-9.816276-26.571034-25.105655-50.105379-36.193104-75.846621 12.446897-17.037241 33.597793-18.043586 50.423172-27.012414 16.331034-8.704 35.045517-12.499862 50.935173-22.439724 2.771862-2.471724-2.824828-5.243586-0.370759-2.648276 1.024 1.112276 1.041655 2.189241-0.176551 2.665931-32.679724 12.711724-62.42869 33.491862-98.851311 35.945931-7.185655-5.808552-10.010483-14.547862-14.759724-21.998344-16.772414-26.288552-38.099862-35.133793-68.290207-28.318897-9.551448 2.153931-18.749793 6.338207-28.318896 7.64469-53.018483 7.309241-74.27531 39.159172-65.924414 104.147862 0.582621 4.413793 1.05931 8.827586 1.730207 13.223724 16.41931 24.434759 9.321931 52.294621 11.581793 78.848-0.564966 23.993379 3.10731 48.128-2.860138 71.856552-22.757517 18.873379-53.336276 22.192552-77.27669 38.806069-22.298483-7.768276-35.663448-26.747586-49.69931-43.325794-35.751724-42.195862-67.742897-87.446069-98.162759-133.826206a37.464276 37.464276 0 0 1-1.995034-8.651035c-3.831172-37.040552 0.882759-73.622069 7.944827-109.638621 14.088828-71.909517 54.519172-108.332138 127.258483-112.19862 54.519172-2.895448 108.967724-9.728 163.751724-6.426483 38.594207-0.247172 77.206069 2.436414 115.729655-1.765517 5.031724-0.388414 9.745655 0.441379 13.841656 3.584 10.081103 21.133241 9.304276 39.812414-12.058483 53.848276-11.705379 10.557793-9.074759 18.361379 4.890483 23.340137 7.68 2.718897 15.90731 2.153931 23.958069 2.153931 59.091862 0.088276 118.183724 0.070621 177.275586 0.017656 5.367172 0 10.769655 0.105931 16.101517-0.653242 9.004138-1.271172 19.42069-2.577655 21.168552-13.064827 2.08331-12.641103-10.028138-12.499862-17.972966-15.377655-5.08469-1.853793-10.187034-3.442759-13.417931-8.297932-5.773241-14.477241-6.461793-28.672 2.01269-42.425379 9.127724-7.238621 20.091586-6.603034 30.790621-7.062069 84.215172-3.636966 168.200828 4.13131 252.257103 6.814897 76.429241 2.454069 118.907586 50.493793 129.677241 135.362207 9.039448 71.344552 6.232276 143.006897 6.426483 214.616276 0.03531 11.917241-4.713931 22.704552-7.185655 34.021517" fill="#018FC3" p-id="2620"></path><path d="M1208.214069 609.050483c-0.847448-77.85931 2.295172-155.789241-6.091035-233.507311-2.895448-26.959448-8.244966-53.071448-19.173517-77.718069-21.292138-48.075034-62.534621-63.947034-111.156965-65.218206C980.48 230.223448 889.149793 228.811034 797.819586 226.974897 781.612138 203.81131 790.192552 176.60469 786.308414 151.481379 780.023172 110.803862 783.889655 69.367172 784.207448 28.248276 784.278069 20.126897 785.95531 12.217379 791.975724 6.002759c12.429241 22.757517 3.372138 47.227586 5.349517 70.814896 1.588966 18.732138 0.670897 37.711448 0.282483 56.549517-0.300138 14.689103 4.290207 18.714483 19.456 14.053518 63.223172-19.385379 126.958345-37.181793 190.252138-56.408276 52.312276-15.854345 105.630897-28.830897 159.938207-30.72 107.396414-3.778207 162.921931 41.878069 168.818759 157.996138 6.497103 127.911724-36.493241 242.617379-101.870345 350.208-8.315586 13.718069-17.302069 27.047724-25.988414 40.553931" fill="#D3EAF3" p-id="2621"></path><path d="M592.436966 228.034207l-8.968828-0.971035c-39.794759 5.684966-80.013241-1.659586-119.808 3.813518-50.193655 2.136276-100.369655 4.502069-150.580966 6.391172-85.168552 3.177931-127.488 43.025655-135.291586 128.635586-2.754207 30.349241-4.307862 60.822069-6.391172 91.241931-10.734345 3.072-16.454621-4.996414-22.563311-10.875586-24.717241-23.799172-51.659034-37.746759-86.510344-22.686896-2.295172 0.98869-5.190621-0.406069-7.538759-1.765518-16.984276-69.66731-25.63531-140.146759-22.475034-212.00331 1.147586-26.129655 5.790897-51.641379 14.689103-75.74069C67.972414 77.206069 121.114483 53.512828 187.374345 66.736552c75.687724 15.112828 147.049931 43.378759 219.153655 69.296551 60.574897 21.786483 122.33269 38.170483 186.085517 46.980414 11.369931 15.059862 11.475862 30.066759-0.176551 45.038345" fill="#D3EAF3" p-id="2622"></path><path d="M442.420966 818.617379C623.774897 820.224 805.128828 821.971862 986.412138 814.309517c14.30069-0.617931 28.689655 0.017655 43.025655 0.070621-55.437241 56.779034-120.055172 101.34069-189.122207 139.422896-48.657655 26.835862-98.868966 50.317241-154.447448 60.204138-66.383448 11.828966-129.341793 3.407448-190.693517-24.982069C439.348966 963.177931 390.338207 927.620414 343.092966 889.202759c-8.121379-6.603034-16.119172-10.840276-26.253242-11.652414 2.736552-11.776 13.170759-10.663724 21.362759-11.811311C375.631448 860.495448 407.181241 843.634759 434.72331 818.370207a7.238621 7.238621 0 0 1 7.715311 0.247172" fill="#D3EAF3" p-id="2623"></path><path d="M438.342621 820.347586c-25.193931 33.774345-62.110897 45.161931-100.934621 52.912552-6.885517 1.359448-13.718069 2.860138-20.568276 4.290207-55.913931 2.648276-110.609655-3.177931-164.104827-20.833104-64.123586-21.150897-106.566621-62.675862-127.593931-127.205517C3.460414 662.987034-6.355862 595.703172 4.343172 525.965241 10.487172 485.85269 25.56469 450.52469 54.784 421.817379 93.042759 402.944 113.204966 405.556966 146.008276 434.070069c8.633379 7.485793 16.93131 15.36 25.370483 23.057655l1.182896 6.62069c8.244966 13.735724 7.821241 28.989793 8.015448 44.226207 0.759172 56.267034-2.648276 112.64 5.190621 168.748138 2.630621 18.714483 6.126345 36.969931 12.288 54.81931 15.766069 45.60331 48.410483 68.925793 95.726345 73.904552 36.475586 3.848828 72.933517 6.814897 109.691586 6.002758 12.076138-0.264828 25.441103-2.612966 34.851311 8.898207" fill="#00C368" p-id="2624"></path><path d="M592.436966 228.034207l0.176551-45.038345c0.105931-51.111724 0.971034-102.258759-0.088276-153.335172C592.119172 10.593103 598.545655 5.067034 617.136552 5.402483c58.262069 1.05931 116.559448 0.512 174.856827 0.58262-2.401103 73.798621 3.884138 147.332414 5.826207 220.989794l-0.123586 42.478344c11.122759 21.715862-2.577655 27.789241-19.809103 29.219311-30.437517 2.507034-61.016276 0.812138-91.542069 0.988689-22.457379 0.141241-44.897103 0.370759-67.354483-0.264827-19.244138-0.54731-35.133793-6.850207-43.678897-25.635311 27.948138-6.903172 17.302069-28.283586 17.125518-45.726896" fill="#B7DDEC" p-id="2625"></path><path d="M563.323586 639.240828c36.599172 17.92 55.119448 49.681655 65.694897 87.04 5.579034 19.650207-9.074759 27.489103-23.216552 33.774344-35.84 15.977931-74.451862 18.449655-112.851862 21.221518-13.382621 0.971034-26.835862 0.98869-40.253793 1.430069-7.574069 5.932138-16.560552 6.373517-25.529379 6.21462-42.231172-0.759172-83.897379-6.038069-123.851035-20.073931-37.323034-13.117793-47.156966-32.838621-35.098483-70.797241 8.086069-25.423448 16.790069-51.429517 44.544-63.52331 22.598621-16.454621 46.680276-29.395862 75.140414-32.026483 18.273103 25.723586 42.513655 44.57931 68.925793 61.545931 11.793655-10.593103-1.536-33.597793 20.48-36.934621 28.036414 8.598069 56.79669 12.005517 86.016 12.129104" fill="#FEFEFE" p-id="2626"></path><path d="M312.779034 634.526897c-19.756138 21.362759-33.544828 45.656276-39.688827 74.487172-6.444138 30.155034-2.648276 39.247448 26.888827 50.988138 39.547586 15.713103 81.425655 18.820414 123.32138 21.398069 9.798621 0.600276 19.597241 0.882759 29.395862 1.306483 1.959724 13.523862-4.466759 24.628966-10.292966 35.91062a6.038069 6.038069 0 0 1-4.060689 1.730207c-43.537655-3.654621-87.216552-2.206897-130.913104-5.12-91.418483-6.055724-117.865931-55.507862-128.882758-129.500689-10.963862-73.498483-6.038069-147.915034-5.967449-221.978483 26.518069 25.458759 45.285517 56.990897 66.206897 86.616276 21.804138 30.843586 47.827862 57.449931 73.975172 84.162207" fill="#006F50" p-id="2627"></path><path d="M563.323586 639.240828c-31.232 14.141793-59.974621 4.713931-88.240552-9.304276-22.881103-7.026759-31.655724-24.664276-34.198068-46.450759-1.765517-15.183448-0.052966-30.331586 2.771862-45.338483a79.589517 79.589517 0 0 0-1.553656-37.199448c-3.460414-12.023172-6.779586-27.383172-22.369103-25.6-15.819034 1.800828-11.917241 16.948966-11.599448 28.301241 0.370759 13.153103 1.377103 27.065379-19.244138 19.38538-0.264828-8.827586-0.423724-17.655172-0.759173-26.500414-0.582621-15.465931 3.707586-32.132414-10.769655-44.243862 3.954759-6.002759 8.562759-11.193379 15.483586-14.088828 49.928828-20.886069 99.787034-41.984 149.715862-62.923034 5.702621-2.401103 11.776-4.096 18.149518-2.330483l102.753103-39.017931 2.383448 5.914483-105.736827 47.563034c-3.460414 5.861517-8.704 9.445517-14.936276 11.793655-15.183448 4.925793-30.013793 10.681379-44.385103 17.796414-29.925517 14.795034-30.031448 14.583172-20.762483 48.692966 15.607172 44.349793 19.332414 46.238897 63.611586 37.005241 13.435586-2.789517 28.089379-8.174345 39.406345 5.861517 30.596414 32.944552 20.48 99.963586-19.720828 130.683587" fill="#183966" p-id="2628"></path><path d="M560.710621 372.947862l-183.348966 79.342345c-3.354483-24.54069-9.939862-49.081379 0.406069-73.622069 2.418759-5.755586 3.230897-12.182069 5.826207-17.814069 9.498483-20.691862 84.268138-52.577103 116.718345-47.704276 33.633103 5.049379 53.318621 26.676966 60.38069 59.798069" fill="#276DB6" p-id="2629"></path><path d="M884.947862 566.784c-50.193655 0-100.38731-0.282483-150.580965 0.176552-13.364966 0.141241-21.715862-1.076966-21.680552-18.220138 0.017655-15.801379 5.773241-19.773793 20.409379-19.773793 102.188138-0.03531 204.376276-0.441379 306.546759-1.412414 14.212414-0.123586 18.184828 4.413793 18.326069 18.308414 0.141241 14.989241-4.201931 20.268138-19.738483 20.00331-51.076414-0.847448-102.188138-0.317793-153.282207-0.317793v1.235862z" fill="#FDFEFE" p-id="2630"></path><path d="M884.100414 464.701793c-50.281931 0-100.546207-0.317793-150.792828 0.229517-13.771034 0.141241-21.362759-1.906759-21.433379-18.626207-0.070621-16.34869 6.708966-19.297103 20.886069-19.297103 102.329379-0.105931 204.641103-0.47669 306.970483-1.588966 15.006897-0.141241 17.831724 5.649655 17.549241 18.855725-0.264828 12.358621-1.165241 19.809103-17.019586 19.52662-52.047448-0.918069-104.112552-0.353103-156.16-0.353103v1.253517z" fill="#FCFDFE" p-id="2631"></path><path d="M885.053793 674.215724c-50.264276 0-100.528552-0.282483-150.775172 0.176552-12.499862 0.123586-20.321103-1.182897-19.773793-16.948966 0.459034-13.506207 1.712552-21.274483 18.643862-21.239172 102.294069 0.300138 204.623448-0.229517 306.899862-1.094621 13.894621-0.123586 18.537931 4.06069 18.661517 18.202483 0.141241 15.377655-5.049379 20.109241-20.232828 19.879724-51.129379-0.776828-102.294069-0.300138-153.423448-0.300138v1.324138z" fill="#FDFEFE" p-id="2632"></path><path d="M388.872828 523.034483c7.026759-0.98869 17.95531 2.842483 13.665103-11.723035a79.571862 79.571862 0 0 1-3.425103-18.237793c-0.688552-13.417931 2.454069-25.741241 17.831724-28.495448 14.636138-2.612966 24.011034 6.302897 28.513103 18.97931 7.944828 22.333793 7.662345 45.444414 2.966069 68.502069-6.338207 31.19669-0.582621 58.209103 26.65931 77.876966-6.267586 3.972414-5.402483 10.416552-6.232275 16.560551-1.359448 10.028138 5.826207 24.593655-4.837518 29.078069-9.710345 4.113655-18.926345-9.039448-25.423448-15.783724-17.655172-18.273103-49.593379-24.487724-50.670345-57.291034l0.95338-79.465931" fill="#BFD4E7" p-id="2633"></path><path d="M544.715034 393.886897l15.412966-6.461794c30.013793 29.325241 39.123862 69.261241 50.123034 106.97269 7.062069 24.187586-19.067586 6.867862-27.224275 14.141793-15.201103-3.954759-29.837241-1.129931-44.702897 2.877793-39.653517 10.734345-49.416828 5.190621-62.393379-34.198069-1.377103-4.201931-1.959724-8.686345-2.930759-13.029517-3.884138-13.064828 1.536-22.121931 11.617104-30.17269a439.031172 439.031172 0 0 1 60.098206-40.130206" fill="#C0D5E7" p-id="2634"></path><path d="M575.311448 273.761103c66.52469 35.080828 138.063448 9.569103 206.883311 17.107863 16.772414 1.836138 15.307034-10.663724 15.483586-21.415725 5.384828 0 10.769655 0.229517 16.136827-0.052965 13.876966-0.759172 23.58731 5.649655 24.346483 19.173517 0.882759 15.501241-10.20469 22.174897-24.487724 22.298483-75.281655 0.653241-150.580966 1.006345-225.880276 1.412414-10.646069 0.052966-19.614897-3.283862-23.092965-14.459587-3.389793-10.840276-0.388414-19.350069 10.610758-24.064" fill="#F8FBFD" p-id="2635"></path><path d="M463.660138 233.489655c39.671172-13.912276 79.83669-5.15531 119.790345-5.684965-39.741793 9.780966-79.801379 5.826207-119.790345 5.684965" fill="#B7DDEC" p-id="2636"></path><path d="M733.342897 92.689655c-0.105931 24.081655-16.843034 42.248828-38.788414 42.072276-22.845793-0.176552-42.01931-18.414345-42.195862-40.183172-0.194207-21.768828 18.785103-40.695172 40.854069-40.712828 26.959448-0.017655 40.253793 12.817655 40.130207 38.806069" fill="#FDFEFE" p-id="2637"></path><path d="M544.715034 393.886897c-15.748414 19.720828-38.36469 31.090759-57.608827 46.556689-8.297931 6.69131-13.982897 13.064828-14.106483 23.746207-10.663724-36.864-10.752-37.075862 22.280828-51.641379 16.119172-7.097379 31.19669-17.143172 49.434482-18.661517" fill="#6A85A5" p-id="2638"></path><path d="M529.655172 434.758621c6.973793 2.365793 8.174345 8.527448 8.262621 14.441931 0.105931 6.673655 0.176552 15.448276-8.792276 15.730758-5.543724 0.176552-6.744276-6.991448-6.708965-12.393931 0.03531-6.797241-1.324138-14.265379 7.23862-17.778758" fill="#3F5D84" p-id="2639"></path></svg>