<?xml version="1.0" standalone="no"?><!DOCTYPE svg PUBLIC "-//W3C//DTD SVG 1.1//EN" "http://www.w3.org/Graphics/SVG/1.1/DTD/svg11.dtd"><svg t="1571194225585" class="icon" viewBox="0 0 1024 1024" version="1.1" xmlns="http://www.w3.org/2000/svg" p-id="4558" xmlns:xlink="http://www.w3.org/1999/xlink" width="200" height="200"><defs><style type="text/css"></style></defs><path d="M366.7614582 915.98659243c-12.51285835 0-24.57882958-2.68132747-35.75102656-8.04398081-23.23816663-11.17219539-40.21990407-33.06969908-46.47633324-60.32985612l-14.74729869-63.9049594c-5.80954205-25.91949408-33.06969908-60.32985613-57.20164154-71.50205152l-58.9891916-28.60081999c-25.02571827-12.06597121-42.90123154-33.5165862-48.7107736-58.54230606-5.80954205-25.02571827 0.89377582-52.28587532 18.32240041-73.73649027l41.1136799-51.39209947c16.53484876-21.00372786 26.36638122-63.4580707 20.55684073-89.3775648l-14.74729868-63.90495784c-6.25642917-27.26015703-0.44688711-54.07342695 15.6410745-74.63026769 16.08796163-20.10995203 41.11367989-31.72903614 69.26761119-31.72903456h65.69251103c26.81326991 0 66.13939817-18.76928909 82.67424694-39.77301696l41.11367989-51.39209947c17.42862458-21.89750368 42.00745572-34.41036203 67.92694823-34.41036205 25.91949408 0 50.49832366 12.51285835 67.92694983 34.41036205l41.11367989 51.39209947c16.53484876 21.00372786 55.86097858 39.77301695 82.67424694 39.77301696h65.69250946c27.70704573 0 53.17965111 11.6190841 69.26761276 31.72903456 16.08796163 20.10995203 21.89750368 47.37010907 15.64107452 74.63026769l-14.74729871 63.90495784c-5.80954205 25.91949408 4.0219904 68.37383694 20.55684075 89.3775648l41.11367989 51.39209947c17.42862458 21.89750368 24.13194244 48.71077201 18.3224004 73.73649027s-23.23816663 46.47633326-48.7107736 58.54230606l-58.98919158 28.60081999c-24.13194244 11.6190841-51.39209949 45.58255743-57.20164154 71.50205152l-14.74729869 63.9049594c-6.25642917 27.26015703-23.23816663 49.1576607-46.47633325 60.32985612s-50.94521236 10.72530828-75.97093063-1.34066451l-58.98919159-28.60082c-24.13194244-11.6190841-67.92694982-11.6190841-91.61200358 0l-58.98919317 28.60082c-14.30040998 6.25642917-28.15393285 9.38464377-41.56056701 9.38464532zM254.59261389 306.43160207c-7.5970937 0-13.40663417 2.23443877-16.53484875 6.7033163-3.5751033 4.0219904-4.46887751 10.72530828-2.68132748 17.87551327l14.7472987 63.90495939c10.72530828 46.02944613-3.5751033 109.04062813-33.51658777 146.13231764l-41.11367992 51.39209948c-4.46887751 5.80954205-6.70331787 12.06597121-5.36265334 16.98173746 1.34066295 5.36265335 5.36265335 9.83153247 12.06597122 13.40663417l58.98919316 28.60082156c42.90123154 20.55683918 82.67424693 71.05516438 93.39955521 117.08460894l14.74729712 63.90495942c1.78755164 7.15020499 5.36265335 12.51285835 10.2784196 14.74729712 4.91576622 2.23443877 11.17219539 1.78755164 17.87551326-1.34066296l58.98919317-28.60082c42.90123154-20.55683918 107.25307806-20.55683918 149.70742093 0l58.98919159 28.60082c6.70331787 3.12821459 12.95974705 3.5751033 17.87551327 1.34066296s8.49086796-7.5970937 10.27841959-14.74729712l14.74729868-63.90495942c10.72530828-46.02944613 50.94521236-96.52776979 93.3995552-117.08460894l58.98919318-28.60082156c6.70331787-3.12821459 11.17219539-8.04398081 12.06597122-13.40663417 1.34066295-5.36265335-0.89377582-11.6190841-5.36265491-17.42862458l-41.11367991-51.39210105c-29.4945958-37.09168949-43.79500736-100.10287307-33.51658622-146.13231764l14.7472987-63.90495782c1.78755164-7.15020499 0.89377582-13.40663417-2.68132748-17.87551328-3.5751033-4.0219904-9.38464377-6.70331787-16.98173744-6.70331786h-65.69250947c-47.37010907 0-105.46552643-28.15393285-134.96012224-65.24562236l-41.11367989-51.39209947c-4.46887751-5.80954205-10.27841958-8.93775665-15.64107451-8.93775664-5.36265335 0-11.17219539 3.12821459-15.64107294 8.93775664l-41.11367989 51.39209947c-29.4945958 37.09168949-87.59001314 65.24562235-134.96012222 65.24562236h-63.90495942z" fill="#4C35D3" p-id="4559"></path><path d="M461.50167634 632.21282512h-87.14312603c-9.83153247 0-17.87551328-8.04398081-17.87551328-17.87551327v-185.45844748c0-9.83153247 8.04398081-17.87551328 17.87551328-17.87551168h12.95974704c9.83153247 0 17.87551328 8.04398081 17.87551328 17.87551168v155.96385009h56.30786571c9.83153247 0 17.87551328 8.04398081 17.87551326 17.87551328v11.61908411c0 10.27841958-7.5970937 17.87551328-17.87551326 17.87551327zM601.3775648 632.21282512h-9.38464377c-7.5970937 0-14.30040998-4.46887751-16.98173746-11.61908411l-67.92694979-185.45844587c-1.78755164-5.36265335-1.34066295-11.6190841 2.23443875-16.53485035 3.12821459-4.91576622 8.93775665-7.5970937 14.74729868-7.5970921h14.30041001c7.5970937 0 14.30040998 4.91576622 16.98173745 11.61908251l42.45434284 118.42527347 45.13567031-118.42527347c2.68132747-6.70331787 9.38464377-11.6190841 16.53485033-11.61908251h13.8535213c5.80954205 0 11.6190841 3.12821459 14.74729868 7.5970921 3.12821459 4.91576622 4.0219904 11.17219539 1.78755165 16.53485035l-71.94894023 185.45844587c-2.68132747 7.15020499-9.38464377 11.6190841-16.53484875 11.61908411z" fill="#FF4D7C" p-id="4560"></path></svg>