<?xml version="1.0" standalone="no"?><!DOCTYPE svg PUBLIC "-//W3C//DTD SVG 1.1//EN" "http://www.w3.org/Graphics/SVG/1.1/DTD/svg11.dtd"><svg t="1589100998566" class="icon" viewBox="0 0 1024 1024" version="1.1" xmlns="http://www.w3.org/2000/svg" p-id="6731" xmlns:xlink="http://www.w3.org/1999/xlink" width="200" height="200"><defs><style type="text/css"></style></defs><path d="M312.728 69.944h547.359l91.854 89.837v794.276H312.728z" fill="#CCCCCC" p-id="6732"></path><path d="M314.159 72.596h544.076l91.301 89.298v789.51H314.159z" fill="#FFFFFF" p-id="6733"></path><path d="M372.949 432.454h54.883V594.11h-54.883z" fill="#CE4036" p-id="6734"></path><path d="M436.41 493.402h54.876V594.11H436.41z" fill="#CE4036" p-id="6735"></path><path d="M499.859 527.52h54.869v66.591h-54.869z" fill="#CE4036" p-id="6736"></path><path d="M563.313 502.819h54.854v97.841h-54.854z" fill="#CE4036" p-id="6737"></path><path d="M626.752 524.148h54.877v69.961h-54.877z" fill="#CE4036" p-id="6738"></path><path d="M372.949 594.109h308.68v28.213l-308.68 0.008z" fill="#CCCCCC" p-id="6739"></path><path d="M478.097 166.717h308.468v21.479H478.097zM372.949 220.373h518.763v21.448l-518.763 0.008zM372.949 257.918h518.763v21.457H372.949zM372.949 295.471h518.763v21.449H372.949zM372.949 333.016h243.126v21.464H372.949zM858.721 161.894h91.302l-91.302-89.298z" fill="#CCCCCC" p-id="6740"></path><path d="M372.949 679.551h109.426v32.666H372.949z" fill="#CE4036" p-id="6741"></path><path d="M509.773 679.551h109.425v32.666H509.773z" fill="#38AAAA" p-id="6742"></path><path d="M645.848 679.551h109.411v32.666H645.848z" fill="#38AAAA" p-id="6743"></path><path d="M782.286 679.551h109.426v32.666H782.286z" fill="#38AAAA" p-id="6744"></path><path d="M372.949 734.479h109.426v32.656H372.949z" fill="#CE4036" p-id="6745"></path><path d="M372.949 789.398h109.426v32.649H372.949z" fill="#CE4036" p-id="6746"></path><path d="M372.949 844.311h109.426v32.664H372.949z" fill="#CE4036" p-id="6747"></path><path d="M645.848 734.479h109.411v32.656H645.848z" fill="#38AAAA" p-id="6748"></path><path d="M782.286 734.479h109.426v32.656H782.286zM782.286 789.398h109.426v32.649H782.286z" fill="#38AAAA" p-id="6749"></path><path d="M236.628 702.541l-35.795-53.736 193.341-128.864 35.816 53.702z" fill="#38AAAA" p-id="6750"></path><path d="M154.26 780.674c-23.724 15.855-55.799 9.406-71.604-14.33-15.819-23.68-9.412-55.748 14.354-71.561l182.598-121.736c23.715-15.791 55.776-9.385 71.596 14.312 15.807 23.735 9.386 55.805-14.322 71.608L154.26 780.674zM787.982 296.197c-45.943-68.96-121.586-106.272-198.681-106.338v44.547c62.729 0.043 124.278 30.396 161.656 86.494 59.488 89.255 35.373 209.93-53.896 269.45-33.173 22.095-70.674 32.642-107.762 32.591v44.547c45.594 0.028 91.688-12.941 132.486-40.123 109.711-73.132 139.361-221.387 66.197-331.168z m-198.68-106.339c-45.571-0.037-91.658 12.936-132.414 40.102-109.753 73.151-139.438 221.422-66.287 331.159 45.964 68.967 121.6 106.287 198.701 106.367v-44.547c-62.729-0.064-124.272-30.435-161.672-86.531-59.475-89.231-35.329-209.879 53.968-269.396 33.158-22.081 70.639-32.642 107.704-32.606v-44.548z" fill="#4E4D4D" p-id="6751"></path><path d="M342.69 625.352c17.781 0 32.301-14.506 32.301-32.301 0-17.789-14.52-32.295-32.301-32.295-17.796 0-32.308 14.506-32.308 32.295 0.001 17.795 14.513 32.301 32.308 32.301z" fill="#38AAAA" p-id="6752"></path></svg>