<?xml version="1.0" standalone="no"?><!DOCTYPE svg PUBLIC "-//W3C//DTD SVG 1.1//EN" "http://www.w3.org/Graphics/SVG/1.1/DTD/svg11.dtd"><svg t="1567751400119" class="icon" viewBox="0 0 1024 1024" version="1.1" xmlns="http://www.w3.org/2000/svg" p-id="5652" xmlns:xlink="http://www.w3.org/1999/xlink" width="200" height="200"><defs><style type="text/css"></style></defs><path d="M840.3 132.7H591.1c-27.3 0-49.5 22.2-49.5 49.5v249.2c0 27.3 22.2 49.5 49.5 49.5h249.2c27.3 0 49.5-22.2 49.5-49.5V182.2c0-27.3-22.2-49.5-49.5-49.5zM589 182.2c0-1.2 0.9-2.1 2.1-2.1h249.2c1.2 0 2.1 0.9 2.1 2.1v249.2c0 1.2-0.9 2.1-2.1 2.1H591.1c-1.2 0-2.1-0.9-2.1-2.1V182.2zM840.3 536.7H591.1c-27.3 0-49.5 22.2-49.5 49.5v249.2c0 27.3 22.2 49.5 49.5 49.5h249.2c27.3 0 49.5-22.2 49.5-49.5V586.2c0-27.3-22.2-49.5-49.5-49.5zM589 586.2c0-1.2 0.9-2.1 2.1-2.1h249.2c1.2 0 2.1 0.9 2.1 2.1v249.2c0 1.2-0.9 2.1-2.1 2.1H591.1c-1.2 0-2.1-0.9-2.1-2.1V586.2zM435.3 536.7H186.1c-27.3 0-49.5 22.2-49.5 49.5v249.2c0 27.3 22.2 49.5 49.5 49.5h249.2c27.3 0 49.5-22.2 49.5-49.5V586.2c0-27.3-22.2-49.5-49.5-49.5zM184 586.2c0-1.2 0.9-2.1 2.1-2.1h249.2c1.2 0 2.1 0.9 2.1 2.1v249.2c0 1.2-0.9 2.1-2.1 2.1H186.1c-1.2 0-2.1-0.9-2.1-2.1V586.2z" fill="#4E30DC" p-id="5653"></path><path d="M418.6 171.1c-31.5-24.1-69.1-36.9-108.8-36.9-37 0-72.5 11.2-102.7 32.4-29.5 20.7-51.9 49.4-64.7 82.9-0.7 1.7-1.1 3.5-1.4 5.4-13 37.7-13.2 79.2-0.3 116.9 0.3 1.3 0.6 2.6 1.1 3.9 16.1 43.2 49.2 79.4 90.8 99.4 1 0.6 1.9 1.1 2.8 1.5 23.6 10.8 48.7 16.3 74.6 16.3 10.2 0 20.4-0.9 30.5-2.6 36.7-6.3 70-23.5 96.4-49.8 33.8-33.8 52.4-78.8 52.4-126.7 0-47.9-18.6-92.9-52.4-126.7-5.7-5.7-11.9-11.1-18.3-16z m20.7 141.2c0.3 34.7-13.1 67.5-37.6 92.2-24.5 24.7-57.1 38.3-91.8 38.3-49.6 0-95.4-29-116.9-73.9-0.3-0.8-0.6-1.6-0.9-2.3-21.7-48.6-11.1-106.5 26.3-144.2 42.4-42.7 110.2-50.3 161.1-18.1 37.1 24 59.4 64.3 59.8 108z" fill="#FF4E7D" p-id="5654"></path></svg>