<?xml version="1.0" standalone="no"?><!DOCTYPE svg PUBLIC "-//W3C//DTD SVG 1.1//EN" "http://www.w3.org/Graphics/SVG/1.1/DTD/svg11.dtd"><svg t="1569378842666" class="icon" viewBox="0 0 1024 1024" version="1.1" xmlns="http://www.w3.org/2000/svg" p-id="11828" xmlns:xlink="http://www.w3.org/1999/xlink" width="200" height="200"><defs><style type="text/css"></style></defs><path d="M96.546893 115.747187l0.766456 0 826.743404 0c19.320021 0 34.463929 15.640212 34.463929 34.71157l0 0.744967 0 722.585159c0 18.822694-15.143908 34.463929-34.463929 34.463929l-0.992607 0L96.546893 908.252813c-19.048845 0-34.463929-15.640212-34.463929-34.463929l0-0.744967L62.082964 681.338756l0-0.248663c0-11.487635 9.276271-20.561291 21.035082-20.561291l163.358555 0 0.473791 0c11.239995 0 20.537755 9.072633 20.537755 20.561291l0 49.381687 126.659725-126.389572L267.488147 477.648634l0 48.660256 0 0.496304c0 11.239995-9.298783 20.288069-20.537755 20.288069L83.118046 547.093263c-11.758812 0-21.035082-9.048073-21.035082-20.288069l0-0.496304 0-375.850134C62.082964 131.387399 77.498048 115.747187 96.546893 115.747187L96.546893 115.747187zM131.032312 702.125175 131.032312 702.125175l0 137.177266 758.290359 0L889.322671 368.568287l-758.290359 0 0 137.448442 95.378278 0 0-78.246085c0-11.487635 9.298783-20.561291 20.537755-20.561291 5.845125 0 11.239995 2.209318 14.670118 6.364965l0.496304 0 176.064948 176.042435c7.80885 7.606235 7.80885 20.808932 0 29.362748l-176.561251 176.064948c-8.057513 7.583722-21.035082 7.583722-29.340235 0-3.904936-4.152577-5.867638-9.523911-5.867638-14.918781l0-78.000492L131.032312 702.125175 131.032312 702.125175zM813.038264 446.593338 813.038264 446.593338c11.510148 0 20.786419 9.298783 20.786419 20.786419 0 11.713786-9.276271 20.537755-20.786419 20.537755L520.334829 487.917512c-11.736299 0-21.035082-8.824993-21.035082-20.537755 0-11.487635 9.298783-20.786419 21.035082-20.786419L813.038264 446.593338 813.038264 446.593338zM730.388892 719.975728 730.388892 719.975728c11.239995 0 20.786419 9.052167 20.786419 20.292162 0 11.487635-9.546424 20.784372-20.786419 20.784372L520.334829 761.052263c-11.736299 0-21.035082-9.296737-21.035082-20.784372 0-11.239995 9.298783-20.292162 21.035082-20.292162L730.388892 719.975728 730.388892 719.975728zM813.038264 537.796526 813.038264 537.796526c11.510148 0 20.786419 8.80248 20.786419 20.538779 0 11.487635-9.276271 20.806885-20.786419 20.806885L520.334829 579.14219c-11.736299 0-21.035082-9.31925-21.035082-20.806885 0-11.736299 9.298783-20.538779 21.035082-20.538779L813.038264 537.796526 813.038264 537.796526zM813.038264 628.774587 813.038264 628.774587c11.510148 0 20.786419 9.274224 20.786419 20.763906 0 11.510148-9.276271 20.312628-20.786419 20.312628L520.334829 669.851121c-11.736299 0-21.035082-8.80248-21.035082-20.312628 0-11.489682 9.298783-20.763906 21.035082-20.763906L813.038264 628.774587 813.038264 628.774587zM835.043441 221.620493 835.043441 221.620493c19.320021 0 34.463929 15.392572 34.463929 34.486442 0 18.822694-15.143908 34.71157-34.463929 34.71157-18.845207 0-34.237779-15.888875-34.237779-34.71157C800.805662 237.013065 816.198234 221.620493 835.043441 221.620493L835.043441 221.620493zM751.175311 221.620493 751.175311 221.620493c18.575054 0 34.237779 15.392572 34.237779 34.486442 0 18.822694-15.663748 34.71157-34.237779 34.71157-19.070334 0-34.734082-15.888875-34.734082-34.71157C716.441229 237.013065 732.104977 221.620493 751.175311 221.620493L751.175311 221.620493zM666.313551 221.620493 666.313551 221.620493c19.342534 0 34.486442 15.392572 34.486442 34.486442 0 18.822694-15.143908 34.71157-34.486442 34.71157-19.070334 0-34.486442-15.888875-34.486442-34.71157C631.828133 237.013065 647.243217 221.620493 666.313551 221.620493L666.313551 221.620493zM131.032312 327.266625 131.032312 327.266625l758.290359 0L889.322671 184.696536l-758.290359 0L131.032312 327.266625 131.032312 327.266625z" p-id="11829" fill="#1afa29"></path></svg>