<?xml version="1.0" standalone="no"?><!DOCTYPE svg PUBLIC "-//W3C//DTD SVG 1.1//EN" "http://www.w3.org/Graphics/SVG/1.1/DTD/svg11.dtd"><svg t="1569375884744" class="icon" viewBox="0 0 1024 1024" version="1.1" xmlns="http://www.w3.org/2000/svg" p-id="1444" xmlns:xlink="http://www.w3.org/1999/xlink" width="200" height="200"><defs><style type="text/css"></style></defs><path d="M149.3 396.8c-40.2 0-78.6 7.2-114.2 19.8-6.1 30.9-9.5 62.8-9.5 95.4 0 212.3 136.2 392.3 325.8 458.7 79.4-58.5 130.8-150.3 130.8-253.9-0.1-176.7-149.1-320-332.9-320z" fill="#4EEAAB" p-id="1445"></path><path d="M512 417.7c27.2 0 54.5-10.4 75.3-31.2 41.6-41.6 41.6-109 0-150.6-20.8-20.8-48-31.2-75.3-31.2s-54.5 10.4-75.3 31.2c-41.6 41.6-41.6 109 0 150.6 20.8 20.8 48.1 31.2 75.3 31.2z m-21-127.4c7.6-7.6 16.4-8.7 21-8.7 4.6 0 13.4 1.1 21 8.7 11.6 11.6 11.6 30.4 0 41.9-7.6 7.6-16.4 8.7-21 8.7-4.6 0-13.4-1.1-21-8.7-11.5-11.5-11.5-30.3 0-41.9zM386.5 436.7c-20.8-20.8-48-31.2-75.3-31.2-27.2 0-54.5 10.4-75.3 31.2-41.6 41.6-41.6 109 0 150.6 20.8 20.8 48 31.2 75.3 31.2 27.2 0 54.5-10.4 75.3-31.2 41.6-41.6 41.6-109 0-150.6zM332.2 533c-7.6 7.6-16.4 8.7-21 8.7-4.6 0-13.4-1.1-21-8.7-11.6-11.6-11.6-30.4 0-41.9 7.6-7.6 16.4-8.7 21-8.7 4.6 0 13.4 1.1 21 8.7 11.6 11.5 11.6 30.3 0 41.9zM637.5 587.3c20.8 20.8 48 31.2 75.3 31.2 27.2 0 54.5-10.4 75.3-31.2 41.6-41.6 41.6-109 0-150.6-20.8-20.8-48-31.2-75.3-31.2-27.2 0-54.5 10.4-75.3 31.2-41.6 41.6-41.6 109 0 150.6z m54.3-96.3c7.6-7.6 16.4-8.7 21-8.7 4.6 0 13.4 1.1 21 8.7 11.6 11.6 11.6 30.4 0 41.9-7.6 7.6-16.4 8.7-21 8.7-4.6 0-13.4-1.1-21-8.7-11.6-11.5-11.6-30.3 0-41.9zM587.3 788c41.6-41.6 41.6-109 0-150.6-20.8-20.8-48-31.2-75.3-31.2s-54.5 10.4-75.3 31.2c-41.6 41.6-41.6 109 0 150.6 20.8 20.8 48 31.2 75.3 31.2s54.5-10.4 75.3-31.2zM491 691.8c7.6-7.6 16.4-8.7 21-8.7 4.6 0 13.4 1.1 21 8.7 11.6 11.6 11.6 30.4 0 41.9-7.6 7.6-16.4 8.7-21 8.7-4.6 0-13.4-1.1-21-8.7-11.5-11.6-11.5-30.4 0-41.9z" fill="#454563" p-id="1446"></path><path d="M942.9 921.6H773.6c135-86.4 224.8-237.4 224.8-409.6 0-268.6-217.8-486.4-486.4-486.4S25.6 243.4 25.6 512c0 265.7 213.2 481.4 477.8 486 1.4 0.2 2.8 0.4 4.3 0.4h435.2c21.2 0 38.4-17.2 38.4-38.4s-17.2-38.4-38.4-38.4zM102.4 512c0-225.9 183.7-409.6 409.6-409.6 225.9 0 409.6 183.7 409.6 409.6 0 225.9-183.7 409.6-409.6 409.6-225.9 0-409.6-183.7-409.6-409.6z" fill="#454563" p-id="1447"></path></svg>