<?xml version="1.0" standalone="no"?><!DOCTYPE svg PUBLIC "-//W3C//DTD SVG 1.1//EN" "http://www.w3.org/Graphics/SVG/1.1/DTD/svg11.dtd"><svg t="1569375865420" class="icon" viewBox="0 0 1024 1024" version="1.1" xmlns="http://www.w3.org/2000/svg" p-id="602" xmlns:xlink="http://www.w3.org/1999/xlink" width="200" height="200"><defs><style type="text/css"></style></defs><path d="M764.416 973.696H267.264c-112.896 0-204.288-91.52-204.288-204.288V272.128C62.848 159.36 154.368 67.84 267.264 67.84h497.152c112.896 0 204.288 91.52 204.288 204.288V769.28c0 112.896-91.52 204.416-204.288 204.416z" fill="#5E36B2" p-id="603"></path><path d="M517.76 729.472L762.624 906.24c2.56 1.92 6.144-0.64 5.12-3.712l-92.544-287.488c-0.384-1.408 0-2.816 1.152-3.712L920.32 433.024c2.56-1.92 1.28-6.016-1.92-6.016l-302.08-0.896c-1.408 0-2.688-0.896-3.2-2.304l-94.208-286.976c-1.024-3.072-5.376-3.072-6.4 0l-94.208 286.976c-0.512 1.408-1.664 2.304-3.2 2.304l-302.08 0.896c-3.2 0-4.608 4.096-1.92 6.016l243.84 178.304c1.152 0.896 1.664 2.304 1.152 3.712l-92.544 287.488c-1.024 3.072 2.56 5.632 5.12 3.712l244.864-176.768c1.536-0.768 3.072-0.768 4.224 0z" fill="#FFFFFF" p-id="604"></path><path d="M559.104 621.952h-123.264c-8.832 0-16-7.168-16-16v-102.528c0-8.832 7.168-16 16-16h123.264c8.832 0 16 7.168 16 16v102.528c0.128 8.704-7.04 16-16 16zM407.68 536.96h-8.96c-2.304 0-4.096-1.792-4.096-4.096v-19.456c0-2.304 1.792-4.096 4.096-4.096h8.96c2.304 0 4.096 1.792 4.096 4.096v19.456c0 2.176-1.792 4.096-4.096 4.096zM630.144 600.96l-48-34.944v-29.056l48.512-36.096c2.56-1.92 6.272-0.128 6.272 3.2l-0.64 93.696c0.128 3.2-3.456 5.12-6.144 3.2z" fill="#5E36B2" p-id="605"></path></svg>