<?xml version="1.0" standalone="no"?><!DOCTYPE svg PUBLIC "-//W3C//DTD SVG 1.1//EN" "http://www.w3.org/Graphics/SVG/1.1/DTD/svg11.dtd"><svg t="1571193899709" class="icon" viewBox="0 0 1024 1024" version="1.1" xmlns="http://www.w3.org/2000/svg" p-id="1966" xmlns:xlink="http://www.w3.org/1999/xlink" width="200" height="200"><defs><style type="text/css"></style></defs><path d="M422.119122 825.780564S386.00627 786.45768 352.30094 754.357367c-48.15047-13.642633-109.141066-26.482759-109.141065-26.482759L316.990596 601.880878c39.322884 49.755486 108.338558 92.288401 173.341692 108.338558l-68.213166 115.561128z m339.460815-77.84326c-33.705329 32.100313-76.238245 77.84326-76.238244 77.84326l-68.213166-115.561128C682.131661 694.971787 744.727273 652.438871 784.050157 601.880878l80.250783 125.191222s-54.570533 8.025078-102.721003 20.865204z" fill="#2F9FEA" p-id="1967"></path><path d="M553.730408 301.742947c65.003135 0 117.968652 52.965517 117.968652 117.968652S618.733542 537.680251 553.730408 537.680251s-117.968652-52.965517-117.968653-117.968652S488.727273 301.742947 553.730408 301.742947m0-120.376176c-131.611285 0-238.344828 106.733542-238.344828 238.344828S422.119122 658.056426 553.730408 658.056426s238.344828-106.733542 238.344827-238.344827S685.341693 181.366771 553.730408 181.366771z" fill="#F97658" p-id="1968"></path><path d="M256 235.937304c0 8.827586 7.222571 16.050157 16.050157 16.050157s16.050157-7.222571 16.050156-16.050157-7.222571-16.050157-16.050156-16.050157-16.050157 7.222571-16.050157 16.050157zM672.501567 129.203762c-12.037618 0-22.470219-9.630094-22.470219-22.47022s9.630094-22.470219 22.470219-22.470219 22.470219 9.630094 22.47022 22.470219-10.432602 22.470219-22.47022 22.47022z m0-32.100314c-5.617555 0-9.630094 4.815047-9.630094 9.630094s4.815047 9.630094 9.630094 9.630094 9.630094-4.815047 9.630094-9.630094-4.012539-9.630094-9.630094-9.630094z" fill="#FFE161" p-id="1969"></path><path d="M309.768025 150.871473c0 8.827586 7.222571 16.050157 16.050157 16.050157s16.050157-7.222571 16.050157-16.050157-7.222571-16.050157-16.050157-16.050156-16.050157 7.222571-16.050157 16.050156z" fill="#2F9FEA" p-id="1970"></path><path d="M915.661442 331.435737c0 8.827586 7.222571 16.050157 16.050157 16.050156s16.050157-7.222571 16.050156-16.050156-7.222571-16.050157-16.050156-16.050157-16.050157 7.222571-16.050157 16.050157zM480.702194 113.153605c-12.037618 0-22.470219-9.630094-22.470219-22.470219s9.630094-22.470219 22.470219-22.47022c12.037618 0 22.470219 9.630094 22.47022 22.47022s-10.432602 22.470219-22.47022 22.470219z m0-32.100313c-5.617555 0-9.630094 4.815047-9.630094 9.630094s4.815047 9.630094 9.630094 9.630094 9.630094-4.815047 9.630094-9.630094-4.012539-9.630094-9.630094-9.630094zM171.736677 315.38558c-4.012539 0-8.025078-4.012539-8.025078-8.025078v-24.075236c0-4.012539 4.012539-8.025078 8.025078-8.025078s8.025078 4.012539 8.025078 8.025078v24.075236c0 4.012539-4.012539 8.025078-8.025078 8.025078z" fill="#F97658" p-id="1971"></path><path d="M191.799373 295.322884c0 4.012539-4.012539 8.025078-8.025078 8.025078h-24.075235c-4.012539 0-8.025078-4.012539-8.025079-8.025078s4.012539-8.025078 8.025079-8.025078h24.075235c4.012539 0 8.025078 3.210031 8.025078 8.025078z" fill="#F97658" p-id="1972"></path><path d="M819.360502 275.260188c-4.815047 0-8.025078-4.012539-8.025079-8.025078v-24.075235c0-4.012539 3.210031-8.025078 8.025079-8.025079 4.012539 0 8.025078 4.012539 8.025078 8.025079v24.075235c0 4.815047-3.210031 8.025078-8.025078 8.025078z" fill="#FFE161" p-id="1973"></path><path d="M839.423197 255.197492c0 4.012539-4.012539 8.025078-8.025078 8.025079h-24.075235c-4.815047 0-8.025078-4.012539-8.025078-8.025079s3.210031-8.025078 8.025078-8.025078h24.075235c4.815047 0 8.025078 4.012539 8.025078 8.025078z" fill="#FFE161" p-id="1974"></path><path d="M819.360502 147.661442c-4.815047 0-8.025078-4.012539-8.025079-8.025078v-24.075235c0-4.815047 3.210031-8.025078 8.025079-8.025079 4.012539 0 8.025078 3.210031 8.025078 8.025079v24.075235c0 4.012539-3.210031 8.025078-8.025078 8.025078z" fill="#2F9FEA" p-id="1975"></path><path d="M839.423197 127.598746c0 4.815047-4.012539 8.025078-8.025078 8.025078h-24.075235c-4.815047 0-8.025078-4.012539-8.025078-8.025078s3.210031-8.025078 8.025078-8.025078h24.075235c4.815047 0 8.025078 3.210031 8.025078 8.025078z" fill="#2F9FEA" p-id="1976"></path><path d="M203.836991 935.724138h-120.376176c-8.827586 0-16.050157-7.222571-16.050157-16.050157s7.222571-16.050157 16.050157-16.050157h120.376176c8.827586 0 16.050157 7.222571 16.050156 16.050157s-7.222571 16.050157-16.050156 16.050157z m679.724138 0h-72.225706c-8.827586 0-16.050157-7.222571-16.050157-16.050157s7.222571-16.050157 16.050157-16.050157h72.225706c8.827586 0 16.050157 7.222571 16.050156 16.050157s-7.222571 16.050157-16.050156 16.050157z m-595.460816 0h-20.062695c-8.827586 0-16.050157-7.222571-16.050157-16.050157s7.222571-16.050157 16.050157-16.050157h20.062695c8.827586 0 16.050157 7.222571 16.050157 16.050157s-7.222571 16.050157-16.050157 16.050157z m458.231975 0H345.07837c-8.827586 0-16.050157-7.222571-16.050157-16.050157s7.222571-16.050157 16.050157-16.050157h401.253918c8.827586 0 16.050157 7.222571 16.050157 16.050157s-7.222571 16.050157-16.050157 16.050157zM795.285266 646.821317H703.799373c-4.012539 0-8.025078-7.222571-8.025078-16.050157s4.012539-16.050157 8.025078-16.050157h91.485893c4.815047 0 8.025078 7.222571 8.025079 16.050157s-3.210031 16.050157-8.025079 16.050157zM790.470219 742.319749H639.598746c-7.222571 0-12.840125-7.222571-12.840125-16.050157s5.617555-16.050157 12.840125-16.050156h150.871473c7.222571 0 12.840125 7.222571 12.840126 16.050156s-5.617555 16.050157-12.840126 16.050157zM787.260188 838.62069H604.288401c-8.827586 0-16.050157-7.222571-16.050156-16.050157s7.222571-16.050157 16.050156-16.050157h182.971787c8.827586 0 16.050157 7.222571 16.050157 16.050157s-7.222571 16.050157-16.050157 16.050157z" p-id="1977"></path><path d="M460.639498 299.335423c-75.435737 0-136.426332 60.990596-136.426332 136.426332s60.990596 136.426332 136.426332 136.426333 136.426332-60.990596 136.426333-136.426333c4.012539-75.435737-57.780564-136.426332-136.426333-136.426332z m0 233.529781c-53.768025 0-97.103448-43.335423-97.103448-97.103449s43.335423-97.103448 97.103448-97.103448 97.103448 43.335423 97.103449 97.103448c3.210031 53.768025-39.322884 97.103448-97.103449 97.103449z m219.08464 10.432602c14.445141-32.100313 24.877743-68.213166 24.877743-104.326019 0-133.216301-107.53605-237.54232-240.752351-237.54232s-240.752351 107.53605-240.752351 237.54232c0 36.112853 10.432602 72.225705 24.877743 104.326019l-97.103449 168.526645s60.990596 10.432602 125.993731 24.877743c43.335423 46.545455 82.658307 93.090909 82.658307 93.090909L449.404389 674.909091h28.890282l89.880878 154.884012s43.335423-46.545455 82.658307-93.090909c65.003135-14.445141 125.99373-24.877743 125.99373-24.877743l-97.103448-168.526645zM353.103448 766.394984s-28.890282-32.100313-57.780564-60.990595c-39.322884-10.432602-89.880878-21.667712-89.880878-21.667712l60.990596-107.53605c32.100313 43.335423 89.880878 79.448276 143.648903 93.090909L353.103448 766.394984z m107.53605-129.203761c-107.53605 0-201.429467-89.880878-201.429467-197.416928s93.090909-208.652038 201.429467-208.652038c107.53605 0 201.429467 93.090909 201.429468 201.429467 0 110.746082-89.880878 204.639498-201.429468 204.639499z m175.749217 64.200627c-28.890282 28.890282-65.003135 68.213166-65.003135 68.213166L513.605016 669.291536c53.768025-14.445141 107.53605-50.557994 140.438871-93.090909L722.257053 683.736677c0.802508 0-45.742947 7.222571-85.868338 17.655173z" p-id="1978"></path></svg>