<?xml version="1.0" standalone="no"?><!DOCTYPE svg PUBLIC "-//W3C//DTD SVG 1.1//EN" "http://www.w3.org/Graphics/SVG/1.1/DTD/svg11.dtd"><svg t="1568191145086" class="icon" viewBox="0 0 1024 1024" version="1.1" xmlns="http://www.w3.org/2000/svg" p-id="4038" xmlns:xlink="http://www.w3.org/1999/xlink" width="200" height="200"><defs><style type="text/css"></style></defs><path d="M160.3 127.6h704c17.7 0 32 14.3 32 32v704c0 17.7-14.3 32-32 32h-704c-17.7 0-32-14.3-32-32v-704c0-17.6 14.3-32 32-32z" fill="#FCA128" p-id="4039"></path><path d="M408.2 783c-21 0-42-8-58-24l-85.9-86c-32-32-32-84.1 0-116l119-119 49.7 49.7-119 119c-4.6 4.6-4.6 12.1 0 16.7l85.9 85.9c4.6 4.6 12.1 4.6 16.7 0l119-119 49.7 49.7-119 119c-16 16-37.1 24-58.1 24zM641.8 583.4l-49.7-49.7 119-119c4.6-4.6 4.6-12.1 0-16.7l-86-85.9c-4.6-4.6-12.1-4.6-16.7 0l-119 119-49.7-49.7 119-119c32-32 84.1-32 116 0l86 85.9c32 32 32 84.1 0 116L641.8 583.4z" fill="#FFFFFF" p-id="4040"></path><path d="M439 619.3c-9 0-18-3.4-24.8-10.3-13.7-13.7-13.7-36 0-49.7l147-147c13.7-13.7 36-13.7 49.7 0 13.7 13.7 13.7 36 0 49.7l-147 147c-6.9 6.9-15.9 10.3-24.9 10.3z" fill="#FFFFFF" p-id="4041"></path></svg>