<?xml version="1.0" standalone="no"?><!DOCTYPE svg PUBLIC "-//W3C//DTD SVG 1.1//EN" "http://www.w3.org/Graphics/SVG/1.1/DTD/svg11.dtd"><svg t="1567392982143" class="icon" viewBox="0 0 1024 1024" version="1.1" xmlns="http://www.w3.org/2000/svg" p-id="1437" xmlns:xlink="http://www.w3.org/1999/xlink" width="200" height="200"><defs><style type="text/css"></style></defs><path d="M382.8 818.5c2.3 2.2 4 4.9 4.8 8l21.7 86.6c0.5 2.1 2.5 3.6 4.7 3.6h188.4c2.3 0 4.2-1.5 4.7-3.7l18.6-81.5c0.5-2.3 1.6-4.4 2.9-6.2-35.7 13-74.3 20.2-114.4 20.2-46.6-0.1-91.1-9.7-131.4-27zM824.3 385.7c0.3-2.5 1.1-4.9 2.5-7l50-77.5c1.2-1.9 0.9-4.5-0.7-6.1L741.2 165.6c-1.5-1.5-3.9-1.8-5.7-0.7l-73.8 41.8c-1.5 0.8-3 1.3-4.6 1.7 75.6 35.9 135.7 99.3 167.2 177.3zM644.9 818.8c1.9 0.3 3.8 0.9 5.5 1.9l82.1 47.9c1.9 1.1 4.2 0.8 5.8-0.7l133.6-130.3c1.7-1.6 1.9-4.3 0.6-6.2l-49.2-70.8c-3.2-4.7-3.9-10.7-1.7-15.9 2.2-5.3 6.9-9.1 12.5-10.1l88.9-16.3c2.3-0.4 3.9-2.4 3.9-4.7V428.8c0-2.2-1.5-4.2-3.7-4.7l-86.1-20c-2.7-0.6-5.2-1.9-7.2-3.7 12.2 34.6 18.9 71.8 18.9 110.6-0.1 138-84.2 256.8-203.9 307.8zM296.2 156.2c-1.9-1.1-4.3-0.9-5.9 0.7L157.5 288.4c-1.6 1.6-1.9 4.2-0.6 6.1l47.6 69.5c3.1 4.6 3.8 10.4 1.8 15.6-2 5.2-6.5 9-11.9 10.2l-93 20.9c-2.2 0.5-3.8 2.4-3.8 4.7v184.8c0 2.3 1.6 4.3 3.9 4.7l86.8 16.5c5.5 1 10.1 4.7 12.2 9.9 2.2 5.1 1.7 11-1.3 15.7l-52.1 80.6c-1.2 1.9-1 4.5 0.7 6.1L281.4 864c1.6 1.6 4.1 1.8 6 0.6l74.9-48c3.1-2 6.8-2.8 10.5-2.5C258.8 760.7 179.7 645 179.7 511c0-184.5 150.1-334.5 334.5-334.5 44.1 0 86.2 8.7 124.8 24.2-0.8-1.4-1.5-2.8-1.9-4.4l-20.9-85.6c-0.5-2.2-2.5-3.7-4.7-3.7h-90.9c-9.2 0-16.7-7.5-16.7-16.7h-18.6c0 9.2-7.5 16.7-16.7 16.7h-23.8c-8.5 0-15.5-6.4-16.5-14.6l-9.5 1.8c2.5 4.7 2.7 10.4 0.1 15.4-1.9 7.7-9 13.2-16.6 13.2-1.3 0-2.5-0.1-3.8-0.5h-0.1L382 188.5l-62.8-38c-4.8 7.9-15.1 10.5-23 5.7z" fill="#FFD524" p-id="1438"></path><path d="M179.7 510.9c0 133.9 79.2 249.7 193.1 303.1 1.6 0.1 3.2 0.4 4.7 1 2 0.8 3.7 2 5.3 3.5 40.4 17.3 84.8 26.9 131.4 26.9 40.2 0 78.7-7.1 114.4-20.2 1.7-2.3 4-4.2 6.7-5.4 3-1.3 6.4-1.6 9.6-1 119.7-51 203.8-169.8 203.8-307.9 0-38.7-6.7-75.9-18.9-110.6-1.9-1.7-3.5-3.8-4.5-6.3-1.1-2.7-1.4-5.5-1-8.3-31.6-77.9-91.7-141.4-167.3-177.3-3.4 0.8-7 0.5-10.3-0.9-3.3-1.4-6-3.9-7.7-7-38.6-15.6-80.7-24.2-124.8-24.2-184.4 0-334.5 150.1-334.5 334.6z m521.5 0v0.6c0 9.2-7.5 16.7-16.7 16.7s-16.7-7.5-16.7-16.7 7.5-17 16.7-17 16.7 7.1 16.7 16.4z m-40.4-88c8.3-4 18.3-0.4 22.3 7.9 3.9 8.2 7.3 16.8 9.9 25.6 2.7 8.8-2.3 18.2-11.1 20.9-1.6 0.5-3.3 0.7-4.9 0.7-7.2 0-13.8-4.6-16-11.8-2.2-7.2-4.9-14.3-8.2-21-3.8-8.4-0.3-18.3 8-22.3zM650 382.5c6.3 6.7 6.1 17.3-0.7 23.7-6.7 6.3-17.3 6.1-23.6-0.7-29.4-31-69-48.1-111.5-48.1-84.6 0-153.5 68.9-153.5 153.5s68.9 153.5 153.5 153.5c53.8 0 102.7-27.5 131-73.5 4.8-7.9 15.1-10.3 23-5.5 7.9 4.8 10.3 15.1 5.5 23-34.4 56-94 89.5-159.5 89.5-103.1 0-187-83.9-187-187s83.9-187 187-187c51.1 0 100.6 21.4 135.8 58.6z m-43.2 128.4c0 51-41.5 92.5-92.5 92.5s-92.5-41.5-92.5-92.5 41.5-92.5 92.5-92.5c50.9-0.1 92.5 41.4 92.5 92.5z" fill="#FFFFFF" p-id="1439"></path><path d="M930.8 391.5l-63-14.6 37.1-57.6c9.9-15.4 7.5-35.7-5.7-48.3L764.3 141.5c-12.3-11.8-30.5-14.1-45.4-5.7l-54.6 30.9-15.6-64.1c-4.2-17.2-19.5-29.2-37.2-29.2h-90.9c-9.2 0-16.7 7.5-16.7 16.7s7.5 16.7 16.7 16.7h90.9c2.2 0 4.1 1.5 4.7 3.7l20.9 85.6c0.4 1.6 1.1 3 1.9 4.4 1.8 3 4.4 5.5 7.7 7 3.3 1.4 6.9 1.6 10.3 0.9 1.6-0.4 3.2-0.9 4.6-1.7l73.8-41.8c1.9-1.1 4.2-0.8 5.7 0.7L876 295c1.7 1.6 2 4.2 0.7 6.1l-50 77.5c-1.4 2.1-2.2 4.5-2.5 7-0.3 2.8 0 5.7 1 8.3 1 2.5 2.6 4.6 4.5 6.3 2 1.8 4.5 3.1 7.2 3.7l86.1 20c2.2 0.5 3.7 2.4 3.7 4.7v184.8c0 2.3-1.7 4.3-3.9 4.7L834 634.6c-5.6 1-10.3 4.8-12.5 10.1-2.2 5.3-1.5 11.3 1.7 15.9l49.2 70.8c1.4 1.9 1.1 4.5-0.6 6.2L738.3 867.8c-1.6 1.5-3.9 1.8-5.8 0.7l-82.1-47.9c-1.7-1-3.6-1.6-5.5-1.9-3.2-0.6-6.5-0.3-9.6 1-2.7 1.2-5 3.1-6.7 5.4-1.4 1.8-2.4 3.9-2.9 6.2l-18.6 81.5c-0.5 2.2-2.4 3.7-4.7 3.7H414c-2.2 0-4.1-1.5-4.7-3.6l-21.7-86.6c-0.8-3.1-2.5-5.8-4.8-8-1.5-1.4-3.3-2.7-5.3-3.5-1.5-0.6-3.1-0.9-4.7-1-3.6-0.3-7.3 0.5-10.5 2.5l-74.9 48c-1.9 1.2-4.3 1-6-0.6L147.9 733.5c-1.6-1.6-1.9-4.1-0.7-6.1l52.1-80.6c3-4.7 3.5-10.5 1.3-15.7-2.2-5.1-6.8-8.8-12.2-9.9l-86.8-16.5c-2.3-0.4-3.9-2.4-3.9-4.7V415.3c0-2.3 1.5-4.2 3.8-4.7l93-20.9c5.4-1.2 9.9-5 11.9-10.2 2-5.2 1.4-11-1.8-15.6L157 294.4c-1.3-1.9-1.1-4.5 0.6-6.1l132.8-131.5c1.6-1.6 4-1.8 5.9-0.7 7.9 4.8 18.2 2.2 23-5.7 4.8-7.9 2.2-18.2-5.7-23-15-9.1-34.3-6.8-46.7 5.6L134 264.6c-13.2 13-15.1 33.6-4.6 48.8l33.7 49.1-69 15.5c-17.6 3.9-29.9 19.3-29.9 37.3v184.8c0 18.4 13.1 34.2 31.1 37.6l62.4 11.9-38.6 59.7c-9.8 15.2-7.6 35.5 5.4 48.2l133.6 130.3c12.8 12.5 32.3 14.5 47.4 4.8l55.3-35.4 16.1 64c4.3 17 19.5 28.9 37.1 28.9h188.4c18 0 33.3-12.2 37.3-29.8l13.5-59.3 62.4 36.4c14.8 8.6 33.7 6.3 46-5.7l133.6-130.3c13.5-13.1 15.4-33.8 4.7-49.2l-34.4-49.4 63.4-11.6c18.2-3.3 31.4-19.2 31.4-37.6V428.8c0.1-17.9-12.1-33.3-29.5-37.3z" fill="#6B400D" p-id="1440"></path><path d="M402.3 122.7c7.6 0 14.7-5.5 16.6-13.2 2.6-5 2.3-10.8-0.1-15.4-1.6-2.9-4-5.5-7.2-7.1-8.2-4.2-18.3-0.9-22.5 7.3-1.3 2.6-2.4 5.4-3.1 8.2-2.2 8.9 3.4 17.5 12.4 19.7h0.1c1.2 0.4 2.5 0.5 3.8 0.5zM444.8 106.9h23.8c9.2 0 16.7-7.5 16.7-16.7s-7.5-16.7-16.7-16.7h-23.8c-9.2 0-16.7 7.5-16.7 16.7 0 0.7 0.1 1.4 0.2 2.1 1 8.2 8 14.6 16.5 14.6zM667.7 511.4c0 9.2 7.5 16.7 16.7 16.7s16.7-7.5 16.7-16.7v-0.6c0-9.2-7.5-16.5-16.7-16.5s-16.7 7.9-16.7 17.1z" fill="#6B400D" p-id="1441"></path><path d="M327.2 510.9c0 103.1 83.9 187 187 187 65.5 0 125.1-33.4 159.5-89.5 4.8-7.9 2.4-18.2-5.5-23-7.9-4.8-18.2-2.4-23 5.5-28.2 46-77.2 73.5-131 73.5-84.6 0-153.5-68.9-153.5-153.5s68.9-153.5 153.5-153.5c42.6 0 82.2 17.1 111.5 48.1 6.3 6.7 16.9 7 23.6 0.7 6.7-6.3 7-16.9 0.7-23.7-35.2-37.3-84.7-58.6-135.8-58.6-103.1 0-187 83.9-187 187z" fill="#6B400D" p-id="1442"></path><path d="M652.9 445.2c3.2 6.7 6 13.8 8.2 21 2.2 7.2 8.8 11.8 16 11.8 1.6 0 3.3-0.2 4.9-0.7 8.8-2.7 13.8-12.1 11.1-20.9-2.7-8.8-6-17.4-9.9-25.6-4-8.4-14-11.9-22.3-7.9-8.4 4-11.9 13.9-8 22.3z" fill="#6B400D" p-id="1443"></path><path d="M478.838112 596.325228a92.5 92.5 0 1 0 70.796435-170.917714 92.5 92.5 0 1 0-70.796435 170.917714Z" fill="#FFD524" p-id="1444"></path></svg>