<?xml version="1.0" standalone="no"?><!DOCTYPE svg PUBLIC "-//W3C//DTD SVG 1.1//EN" "http://www.w3.org/Graphics/SVG/1.1/DTD/svg11.dtd"><svg t="1579597529762" class="icon" viewBox="0 0 1024 1024" version="1.1" xmlns="http://www.w3.org/2000/svg" p-id="3779" xmlns:xlink="http://www.w3.org/1999/xlink" width="200" height="200"><defs><style type="text/css"></style></defs><path d="M179.2 512h204.8c71.68 0 128 56.32 128 128v204.8c0 71.68-56.32 128-128 128h-204.8C107.52 972.8 51.2 916.48 51.2 844.8v-204.8C51.2 568.32 107.52 512 179.2 512z" fill="#5AC8FA" p-id="3780"></path><path d="M819.2 512c0-15.36 10.24-25.6 25.6-25.6s25.6 10.24 25.6 25.6v332.8c0 71.68-56.32 128-128 128h-563.2C107.52 972.8 51.2 916.48 51.2 844.8v-563.2C51.2 209.92 107.52 153.6 179.2 153.6H512c15.36 0 25.6 10.24 25.6 25.6s-10.24 25.6-25.6 25.6H179.2C138.24 204.8 102.4 240.64 102.4 281.6v563.2c0 40.96 35.84 76.8 76.8 76.8h563.2c40.96 0 76.8-35.84 76.8-76.8V512z m102.4-373.76L389.12 670.72c-10.24 10.24-25.6 10.24-35.84 0-10.24-10.24-10.24-25.6 0-35.84L885.76 102.4h-245.76c-15.36 0-25.6-10.24-25.6-25.6s10.24-25.6 25.6-25.6h256c40.96 0 76.8 35.84 76.8 76.8v256c0 15.36-10.24 25.6-25.6 25.6s-25.6-10.24-25.6-25.6V138.24z" fill="" p-id="3781"></path></svg>