<?xml version="1.0" standalone="no"?><!DOCTYPE svg PUBLIC "-//W3C//DTD SVG 1.1//EN" "http://www.w3.org/Graphics/SVG/1.1/DTD/svg11.dtd"><svg t="1586164201961" class="icon" viewBox="0 0 1024 1024" version="1.1" xmlns="http://www.w3.org/2000/svg" p-id="2793" xmlns:xlink="http://www.w3.org/1999/xlink" width="200" height="200"><defs><style type="text/css"></style></defs><path d="M579.025 98.676l-188.509 188.51 65.63 65.629 188.509-188.51a145.687 145.687 0 0 1 205.265-7.912 145.687 145.687 0 0 1-7.913 205.265l-190.37 188.51 65.628 65.628 188.51-188.509a242.502 242.502 0 0 0 13.032-342.109 242.502 242.502 0 0 0-339.782 13.498z m3.724 522.706L394.24 809.89a145.687 145.687 0 0 1-205.265 7.913 145.687 145.687 0 0 1 7.912-205.266l188.51-188.509-66.095-66.094-188.51 188.509a242.502 242.502 0 0 0-13.032 342.109 242.502 242.502 0 0 0 342.11-13.033l188.508-188.51z" fill="#2288EE" p-id="2794"></path><path d="M368.175 573.44l218.298-218.298a46.545 46.545 0 0 1 65.629 0 46.545 46.545 0 0 1 0 65.629L433.804 639.535a46.545 46.545 0 0 1-65.63 0 46.545 46.545 0 0 1 0-66.095z" fill="#2288EE" p-id="2795"></path></svg>