<?xml version="1.0" standalone="no"?><!DOCTYPE svg PUBLIC "-//W3C//DTD SVG 1.1//EN" "http://www.w3.org/Graphics/SVG/1.1/DTD/svg11.dtd"><svg t="1560779245756" class="icon" style="" viewBox="0 0 1024 1024" version="1.1" xmlns="http://www.w3.org/2000/svg" p-id="1567" xmlns:xlink="http://www.w3.org/1999/xlink" width="200" height="200"><defs><style type="text/css"></style></defs><path d="M914.496 576L896 556.544V896a64 64 0 0 1-64 64H192a64 64 0 0 1-64-64V556.992L109.504 576l-44.608-46.4L128 464.832V448h16.384l327.744-336.64-1.024-1.152 44.544-46.4L881.344 448H896v15.36l63.104 66.24-44.608 46.4zM448 896h128v-187.968H448V896z m384-406.656L516.48 157.952 192 491.2V896h192v-252.032h256V896h192V489.344z" p-id="1568"></path></svg>