<?xml version="1.0" standalone="no"?><!DOCTYPE svg PUBLIC "-//W3C//DTD SVG 1.1//EN" "http://www.w3.org/Graphics/SVG/1.1/DTD/svg11.dtd"><svg t="1571985206416" class="icon" viewBox="0 0 1024 1024" version="1.1" xmlns="http://www.w3.org/2000/svg" p-id="6739" xmlns:xlink="http://www.w3.org/1999/xlink" width="200" height="200"><defs><style type="text/css"></style></defs><path d="M469.376 887.424l-0.768-0.512a1436.608 1436.608 0 0 1-280.576-261.376l-0.384-0.64v-0.576a268.8 268.8 0 0 1-59.456-156.672 209.6 209.6 0 0 1 207.104-211.584c64 0 122.432 65.216 160.96 114.176 38.976-48.96 98.112-114.176 160.96-114.176a209.6 209.6 0 0 1 207.168 211.584 212.48 212.48 0 0 1-3.712 39.296 96.512 96.512 0 0 0-58.752 27.712l-140.16 140.224-68.352-73.344a96.32 96.32 0 0 0-70.016-30.656 95.616 95.616 0 0 0-65.536 25.984 96.384 96.384 0 0 0-4.864 135.552l113.664 122.048c-24.64 19.2-41.408 31.36-43.776 32.896a44.8 44.8 0 0 1-26.624 8.576 45.76 45.76 0 0 1-26.88-8.512z m178.24-64.512a32 32 0 0 1-10.752-7.296l-133.376-138.112a32 32 0 0 1 0.768-45.312 32 32 0 0 1 45.248 0.768l117.952 122.176 208.96-201.728a32 32 0 0 1 45.184 0.768 32 32 0 0 1-0.768 45.312l-230.4 222.208a32 32 0 0 1-22.272 9.024 32 32 0 0 1-20.544-7.872z" p-id="6740" fill="#d81e06"></path></svg>