<?xml version="1.0" standalone="no"?><!DOCTYPE svg PUBLIC "-//W3C//DTD SVG 1.1//EN" "http://www.w3.org/Graphics/SVG/1.1/DTD/svg11.dtd"><svg t="1571985028252" class="icon" viewBox="0 0 1346 1024" version="1.1" xmlns="http://www.w3.org/2000/svg" p-id="5812" xmlns:xlink="http://www.w3.org/1999/xlink" width="262.890625" height="200"><defs><style type="text/css"></style></defs><path d="M865.03619 898.194286l21.455239 15.603809 4.87619-27.306666 22.430476-16.579048-24.380952-11.702857-7.801905-26.331429-19.504762 20.48-27.306666 0.975238 11.702857 24.380953-7.801905 25.35619 26.331428-4.87619zM672.914286 996.693333c-221.379048 0-408.624762-152.137143-463.238096-359.862857l-29.257142-7.801905C233.081905 855.28381 433.980952 1024 672.914286 1024c145.310476 0 275.992381-61.44 367.664762-160.914286l-29.257143-7.801904c-86.79619 87.771429-205.775238 141.409524-338.407619 141.409523zM336.457143 765.561905l21.455238 17.554285 4.87619-26.331428 22.430477-14.628572-24.380953-14.628571-7.801905-26.331429-19.504761 17.554286-27.306667-1.950476 11.702857 25.35619-8.777143 25.356191 27.306667-1.950476zM672.914286 935.253333l16.579047 21.455238 12.678096-24.380952 26.331428-8.777143-19.504762-18.529524V877.714286l-24.380952 12.678095-26.331429-7.801905 3.900953 26.331429-16.579048 22.430476 27.306667 3.900952z m-163.84-82.895238L487.619048 834.80381l-6.826667 26.331428-22.430476 13.653333 23.405714 13.653334 6.826667 26.331428 21.455238-17.554285 27.306666 1.950476-10.727619-24.380953 10.727619-25.35619-28.281904 2.925714z m285.744762-56.563809c-37.059048 16.579048-78.994286 25.35619-121.904762 25.35619-100.449524 0-190.171429-49.737143-245.76-125.805714l-39.009524-10.727619C445.68381 783.11619 551.984762 848.457143 672.914286 848.457143c58.514286 0 113.127619-15.60381 160.914285-41.935238l-39.009523-10.727619zM672.914286 27.306667c221.379048 0 408.624762 152.137143 463.238095 359.862857l29.257143 7.801905C1112.746667 168.71619 911.847619 0 672.914286 0 527.60381 0 396.921905 61.44 305.249524 160.914286l29.257143 7.801904C421.302857 80.944762 540.281905 27.306667 672.914286 27.306667z m641.706666 505.173333L1239.527619 819.2c-5.851429 21.455238-27.306667 34.133333-48.761905 28.281905L59.489524 540.281905c-21.455238-5.851429-34.133333-28.281905-28.281905-49.737143L106.300952 204.8c5.851429-21.455238 27.306667-34.133333 48.761905-28.281905l1131.276191 307.2c21.455238 4.87619 34.133333 27.306667 28.281904 48.761905z m-7.801904-72.167619L149.211429 147.260952c-28.281905-7.801905-57.539048 9.752381-65.340953 38.034286L1.950476 497.371429c-7.801905 28.281905 8.777143 58.514286 38.034286 66.31619L1196.617143 877.714286c28.281905 7.801905 57.539048-9.752381 65.340952-38.034286l82.895238-312.07619c6.826667-29.257143-9.752381-59.489524-38.034285-67.291429z m-300.373334-202.849524l-23.405714-16.579047-2.925714 27.306666-21.455238 15.60381 25.35619 12.678095 9.752381 26.331429 18.529524-19.504762h27.306667l-13.653334-24.380953 7.801905-26.331428-27.306667 4.87619zM708.998095 87.771429L692.419048 66.31619l-12.678096 24.380953-26.331428 9.752381 19.504762 18.529524V146.285714l25.35619-12.678095 26.331429 7.801905-3.900953-26.331429 16.579048-22.430476-28.281905-4.87619z m-205.775238 38.034285l-22.430476-15.603809-4.876191 27.306666-22.430476 16.579048L477.866667 165.790476l7.801904 26.331429 19.504762-20.48 27.306667-0.975238-11.702857-24.380953 8.777143-26.331428-26.331429 5.851428z m370.590476 58.514286l21.455238 17.554286 6.826667-26.331429 24.380952-14.628571-24.380952-14.628572-6.826667-26.331428-21.455238 17.554285-28.281904-0.975238 10.727619 25.356191-10.727619 25.35619 28.281904-2.925714zM672.914286 201.874286c100.449524 0 190.171429 49.737143 245.76 125.805714l39.009524 10.727619C900.144762 240.88381 793.84381 175.542857 672.914286 175.542857c-58.514286 0-113.127619 15.60381-160.914286 41.935238l39.009524 10.727619c37.059048-16.579048 78.019048-26.331429 121.904762-26.331428z" p-id="5813" fill="#d81e06"></path><path d="M340.358095 433.005714l-16.579047 62.415238c-1.950476 8.777143 0.975238 13.653333 8.777142 15.60381l113.12762 30.232381c3.900952 0.975238 7.801905 0.975238 11.702857-0.975238 4.87619-1.950476 10.727619-15.60381 17.554285-39.009524l19.504762 12.678095c-10.727619 27.306667-18.529524 43.885714-24.380952 47.786667-6.826667 3.900952-14.628571 3.900952-23.405714 1.950476l-125.805715-33.158095c-18.529524-4.87619-25.35619-17.554286-20.48-37.059048l31.207619-117.028571 21.455238 5.851428-7.801904 31.207619 118.003809 31.207619L477.866667 390.095238l-150.186667-39.984762 5.851429-20.48 171.641904 45.836191-25.35619 94.598095-139.459048-37.059048zM658.285714 447.634286c2.925714-2.925714 5.851429-6.826667 7.801905-9.752381-21.455238-4.87619-44.860952-9.752381-69.241905-16.579048l-0.975238-19.504762C660.23619 419.352381 714.849524 429.104762 760.685714 432.030476l5.851429 19.504762c-22.430476-0.975238-48.761905-4.87619-78.019048-9.752381-2.925714 3.900952-5.851429 7.801905-7.801905 11.702857l80.944762 21.455238-4.87619 18.529524-89.721905-24.380952-9.752381 9.752381 109.226667 29.257143-4.876191 18.529523-121.904762-33.158095-11.702857 8.777143 109.226667 29.257143-29.257143 109.226667-20.48-5.851429 1.950476-8.777143-97.523809-26.331428-1.950476 8.777142-20.48-5.851428 21.455238-79.969524c-12.678095 5.851429-26.331429 11.702857-39.984762 16.579048l-6.826667-21.455238c26.331429-8.777143 48.761905-20.48 69.241905-32.182858l-50.712381-13.653333 4.87619-18.529524 65.340953 17.554286c3.900952-2.925714 7.801905-5.851429 10.727619-8.777143l-61.44-16.579047 4.87619-18.529524 71.192381 20.48zM595.870476 585.142857l97.52381 26.331429 2.925714-11.702857-97.52381-26.331429-2.925714 11.702857z m7.801905-28.281905l97.523809 26.331429 2.925715-10.727619-97.52381-26.331429-2.925714 10.727619zM711.92381 545.158095l-97.52381-26.331428-2.925714 10.727619 97.523809 26.331428 2.925715-10.727619zM877.714286 522.727619l-4.876191 16.579048c-10.727619 9.752381-22.430476 19.504762-35.108571 28.281904l27.306666 7.801905-3.900952 14.628572c-6.826667 15.60381-14.628571 28.281905-21.455238 38.034285 1.950476 1.950476 2.925714 3.900952 3.900952 5.851429 5.851429 8.777143 10.727619 14.628571 16.579048 19.504762 5.851429 3.900952 14.628571 7.801905 27.306667 11.702857 11.702857 3.900952 25.35619 7.801905 40.96 11.702857 16.579048 3.900952 38.034286 9.752381 64.365714 15.60381l-9.752381 19.504762-55.588571-14.628572c-15.60381-3.900952-30.232381-8.777143-44.860953-12.678095-15.60381-4.87619-26.331429-8.777143-33.158095-14.628572-8.777143-5.851429-15.60381-13.653333-21.455238-23.405714-0.975238-1.950476-2.925714-2.925714-3.900953-3.900952-4.87619-0.975238-14.628571 6.826667-31.207619 23.405714l-11.702857-18.529524c15.60381-16.579048 29.257143-26.331429 39.984762-27.306666 6.826667-9.752381 12.678095-19.504762 18.529524-31.207619l-33.158095-8.777143 3.900952-16.579048c13.653333-8.777143 26.331429-17.554286 36.08381-26.331429l-31.207619-8.777142 4.87619-19.504762 57.539048 13.653333z m2.925714-21.455238l-17.554286 10.727619c-5.851429-12.678095-14.628571-26.331429-26.331428-41.935238l18.529524-9.752381c10.727619 13.653333 19.504762 27.306667 25.35619 40.96z m25.35619 157.013333l0.975239-22.430476c9.752381 3.900952 19.504762 6.826667 28.281904 9.752381 5.851429 1.950476 10.727619-0.975238 11.702857-6.826667l24.380953-89.721904-84.845714-22.430477 5.851428-20.48 85.820953 22.430477 9.75238-35.108572 21.455239 5.851429-9.752381 35.108571 32.182857 8.777143-5.851429 20.48-32.182857-8.777143-25.35619 95.573334c-3.900952 15.60381-13.653333 20.48-29.257143 16.579047l-33.158096-8.777143z m24.380953-55.588571l-20.48 7.801905c-3.900952-15.60381-10.727619-33.158095-19.504762-53.638096l19.504762-5.851428c9.752381 20.48 16.579048 37.059048 20.48 51.687619z" p-id="5814" fill="#d81e06"></path></svg>